<svg width="62" height="56" viewBox="0 0 62 56" fill="none" xmlns="http://www.w3.org/2000/svg">
<path d="M31.8509 24.3793C31.3849 23.7739 31.6334 22.6075 31.777 21.9863C32.113 20.6568 32.5582 19.3574 33.1081 18.1013C34.6322 14.3423 36.2929 10.4105 39.4535 7.8201C40.7885 6.72832 42.5907 6.00347 44.3325 6.65247C46.9729 7.61592 47.6576 10.983 47.0165 13.3761C46.7695 14.3662 46.3576 15.3076 45.7982 16.161C44.854 17.4892 43.5247 18.4371 42.1984 19.3368C40.8036 20.3349 39.3301 21.2181 37.7923 21.9777C36.8348 22.4209 35.8589 22.8194 34.8819 23.2108C34.5997 23.3231 31.9469 24.5176 31.8538 24.3972" fill="#DF5B5A"/>
<path d="M34.403 24.2901C32.9209 24.7315 31.2679 22.5463 30.4511 21.5914C28.8705 19.6509 27.4814 17.562 26.3033 15.3538C24.9104 12.8546 24.037 9.74584 24.5214 6.97881C25.1107 3.62259 27.7233 0.330177 31.4827 0.985268C32.4274 1.13619 33.3262 1.49735 34.1127 2.04208C36.124 3.64044 36.7547 6.25374 36.9719 8.64894C37.2639 11.8568 36.6945 14.8431 36.0845 17.9388C35.8731 18.9964 35.6422 20.0463 35.3649 21.0817C35.2226 21.6221 35.0648 22.1576 34.8964 22.6949C34.8322 22.9071 34.5655 24.2525 34.3839 24.3079" fill="#DF5B5A"/>
<path d="M19.2031 21.3752C19.3017 21.2376 19.3537 21.072 19.3513 20.9028C19.349 20.7335 19.2925 20.5694 19.1901 20.4346C18.2417 19.0981 15.9015 15.4939 16.2321 12.9674C16.3859 11.7929 17.1489 10.9718 18.4959 10.5226L18.0288 9.18305C16.3071 9.75683 15.3276 10.8812 15.1115 12.5269C14.699 15.6698 17.317 19.7332 18.387 21.2309C18.6195 21.557 18.9967 21.6205 19.214 21.3751" fill="#191411"/>
<path d="M21.7034 9.32785C21.3237 8.0341 19.8332 7.2695 18.3617 7.61549C16.8902 7.96147 16.004 9.29442 16.3801 10.5846C16.7561 11.8748 18.2539 12.6429 19.7218 12.297C21.1897 11.951 22.0795 10.618 21.7034 9.32785Z" fill="#191411"/>
<path d="M4.21309 37.2911C8.15705 45.6814 18.2783 53.7323 33.2703 51.2527C53.5725 47.8867 59.0963 28.8492 59.0963 28.8492C59.0963 28.8492 48.9492 39.5346 29.0799 17.9782C18.9041 6.93719 -4.47668 18.8198 4.20595 37.2923" fill="#F8CD89"/>
<mask id="mask0_244_3535" style="mask-type:alpha" maskUnits="userSpaceOnUse" x="2" y="13" width="58" height="39">
<path d="M4.21309 37.2911C8.15705 45.6814 18.2783 53.7323 33.2703 51.2527C53.5725 47.8867 59.0963 28.8492 59.0963 28.8492C59.0963 28.8492 48.9492 39.5346 29.0799 17.9782C18.9041 6.93719 -4.47668 18.8198 4.20595 37.2923" fill="#F8CD89"/>
</mask>
<g mask="url(#mask0_244_3535)">
<path d="M32.5711 21.6178C28.173 37.123 13.9717 42.4111 7.42075 43.117C7.42075 43.117 9.18266 44.8046 10.3114 45.7838C11.4245 46.7494 13.2973 47.8807 13.2973 47.8807C29.7411 44.1463 35.7466 31.3831 36.771 25.3633L32.5711 21.6178Z" fill="black" stroke="black"/>
<path d="M41.4221 27.8644C36.5949 44.8904 25.3692 50.4125 20.4525 51.03C23.467 51.7488 29.8682 51.5071 32.692 51.2964C39.3838 46.5566 44.3667 34.9668 45.9289 29.7795C44.2232 29.6044 42.2137 28.4298 41.4221 27.8644Z" fill="black" stroke="black"/>
<path d="M49.9633 25.0089C49.8309 42.7056 40.4746 51.0104 35.8985 52.9114C38.9956 52.8039 45.1028 50.871 47.7693 49.9179C52.9621 43.5713 54.6882 31.0743 54.8168 25.6585C53.1259 25.9426 50.8766 25.3438 49.9633 25.0089Z" fill="black" stroke="black"/>
<circle cx="7.44416" cy="25.1228" r="3.07532" transform="rotate(-9.32308 7.44416 25.1228)" fill="black"/>
<ellipse cx="6.8214" cy="24.6757" rx="0.724257" ry="0.724257" transform="rotate(-9.32308 6.8214 24.6757)" fill="white"/>
<path d="M6.86062 31.2682C6.86062 31.2682 5.19879 38.3437 -0.149484 33.504C-0.149484 33.504 4.06726 36.271 6.86062 31.2682Z" fill="black"/>
</g>
<path d="M15.4368 22.1277C15.477 21.9635 15.4631 21.7908 15.3973 21.6351C15.3314 21.4795 15.2171 21.3492 15.0713 21.2638C13.6995 20.367 10.1986 17.8693 9.58011 15.397C9.29322 14.2525 9.70082 13.2066 10.7903 12.2944L9.86268 11.2221C8.47337 12.3852 7.97447 13.7907 8.37443 15.4006C9.14733 18.4782 13.0668 21.2922 14.6144 22.2994C14.9505 22.5155 15.3266 22.4391 15.4368 22.1277Z" fill="#191411"/>
<path d="M13.3364 10.0029C12.5128 8.93919 10.8436 8.77691 9.60969 9.63578C8.37577 10.4947 8.03173 12.0617 8.85533 13.1254C9.67892 14.1892 11.3523 14.3544 12.5821 13.4926C13.8118 12.6307 14.157 11.0708 13.3328 10.0035" fill="#191411"/>
</svg>
