<svg width="61" height="53" viewBox="0 0 61 53" fill="none" xmlns="http://www.w3.org/2000/svg">
<path d="M50.9189 12.6086L52.9274 16.7802L54.3097 13.5567L50.9189 12.6086Z" fill="#FFF100"/>
<path d="M53.0877 17.4408C54.2967 25.5593 50.7863 36.4577 38.5206 41.9843C21.9063 49.4623 8.4967 38.1409 8.4967 38.1409C8.4967 38.1409 21.2168 41.0387 25.2868 15.4048C27.3706 2.27579 50.4344 -0.436798 53.0965 17.4369" fill="#BAE1DB"/>
<path d="M31.4205 19.0115C34.0232 21.0201 33.693 25.4325 29.5966 28.5186C27.684 30.1526 22.8817 31.0893 19.1439 30.6458C15.313 30.3632 12.5372 28.7027 12.5682 28.804C14.4414 27.9335 16.1915 26.8193 17.7728 25.4903C20.225 23.5385 22.1306 20.987 23.1716 19.9881C26.0102 17.2611 29.0888 17.1979 31.422 19.0177" fill="black"/>
<path d="M46.2036 10.7732C46.2036 10.7732 46.1907 16.3751 41.1507 13.8726C41.1507 13.8726 44.9345 15.0658 46.2036 10.7732Z" fill="#424455"/>
</svg>
