<svg width="251" height="264" viewBox="0 0 251 264" fill="none" xmlns="http://www.w3.org/2000/svg">
<path d="M187.779 249.617C187.779 249.617 237.197 208.829 248.882 145.236C260.568 81.6432 212.704 68.8667 184.63 47.3321C156.556 25.7976 146.239 1.55742 105.549 0.0905556C64.8587 -1.37631 43.8049 15.0119 29.124 46.7528C14.443 78.4937 6.55401 111.079 1.91922 142.9C-2.71558 174.721 -0.453651 200.108 25.654 212.761C51.7617 225.414 63.8664 219.855 76.2916 234.437C88.7168 249.02 145.253 281.999 187.779 249.617Z" fill="#EEEEEE"/>
<path opacity="0.4" d="M187.779 249.617C187.779 249.617 237.197 208.829 248.882 145.236C260.568 81.6432 212.704 68.8667 184.63 47.3321C156.556 25.7976 146.239 1.55742 105.549 0.0905556C64.8587 -1.37631 43.8049 15.0119 29.124 46.7528C14.443 78.4937 6.55401 111.079 1.91922 142.9C-2.71558 174.721 -0.45365 200.108 25.654 212.761C51.7617 225.414 63.8664 219.855 76.2916 234.437C88.7168 249.02 145.253 281.999 187.779 249.617Z" fill="white"/>
<path opacity="0.3" d="M56.5383 195.787C56.505 195.738 56.4606 195.696 56.4088 195.667C56.3569 195.637 56.2989 195.62 56.2393 195.616C56.1796 195.613 56.12 195.623 56.0649 195.646C56.0099 195.669 55.961 195.705 55.922 195.75C42.9421 210.363 37.956 232.884 42.9421 254.548C42.9548 254.617 42.9821 254.682 43.0222 254.739L43.7803 254.548C43.7926 254.489 43.7926 254.428 43.7803 254.369C38.899 233.075 43.7803 210.912 56.5937 196.527C56.6761 196.418 56.7159 196.283 56.7057 196.147C56.6955 196.01 56.636 195.883 56.5383 195.787Z" fill="#1ECEA5"/>
<path opacity="0.3" d="M49.1423 235.121C43.9097 233.938 41.5984 243.214 41.7833 243.356C41.8388 244.409 41.9066 245.47 42.0052 246.53C42.301 245.192 44.4705 243.078 48.2116 241.809C51.8418 240.372 54.1469 236.058 49.1423 235.121Z" fill="#1ECEA5"/>
<path opacity="0.3" d="M33.9621 232.508C28.8096 231.559 30.8804 239.676 34.8743 241.457C38.7448 243.343 41.3149 245.272 41.9312 246.536C41.771 245.476 41.6354 244.416 41.5244 243.362C41.3457 243.454 38.8311 233.593 33.9621 232.508Z" fill="#1ECEA5"/>
<path opacity="0.3" d="M50.2948 226.265C45.2347 224.095 41.586 232.551 41.7525 232.718C41.6477 233.735 41.5676 234.764 41.5121 235.799C41.999 234.567 44.5136 232.995 48.4026 232.52C52.2424 231.879 55.1699 228.138 50.2948 226.265Z" fill="#1ECEA5"/>
<path opacity="0.3" d="M35.4968 220.742C30.4799 218.813 31.3982 227.035 35.1208 229.525C38.714 232.101 41.0006 234.456 41.432 235.781C41.432 234.739 41.432 233.704 41.4937 232.668C41.3026 232.724 40.2055 222.782 35.4968 220.742Z" fill="#1ECEA5"/>
<path opacity="0.3" d="M52.717 217.919C47.9651 214.838 43.1146 222.295 43.2564 222.486C43.0037 223.448 42.7757 224.416 42.5723 225.402C43.2379 224.323 45.9744 223.294 49.9312 223.596C53.8572 223.731 57.321 220.693 52.717 217.919Z" fill="#1ECEA5"/>
<path opacity="0.3" d="M38.714 209.661C33.9745 206.807 33.7156 214.955 37.0807 218.092C40.3041 221.291 42.2579 224.009 42.4983 225.377C42.6462 224.372 42.8126 223.374 43.0037 222.382C42.8003 222.412 43.1269 212.57 38.714 209.661Z" fill="#1ECEA5"/>
<path opacity="0.3" d="M56.3472 210.271C52.0329 206.339 46.1038 212.668 46.2209 212.872C45.8347 213.751 45.4669 214.649 45.1177 215.565C45.9374 214.653 48.8156 214.185 52.7355 215.257C56.6369 216.169 60.5505 213.87 56.3472 210.271Z" fill="#1ECEA5"/>
<path opacity="0.3" d="M43.5584 199.497C39.2441 195.799 37.7834 203.688 40.7048 207.393C43.4659 211.134 45.0191 214.172 45.0684 215.528C45.3642 214.585 45.6847 213.648 46.0052 212.724C45.7772 212.718 47.5214 203.195 43.5584 199.497Z" fill="#1ECEA5"/>
<path opacity="0.3" d="M61.1238 203.498C57.3765 198.832 50.4859 203.867 50.5784 204.083C50.0607 204.856 49.5696 205.653 49.1053 206.474C50.0607 205.747 53.0129 205.858 56.7786 207.652C60.5259 209.322 64.7971 207.83 61.1238 203.498Z" fill="#1ECEA5"/>
<path opacity="0.3" d="M49.8757 190.505C46.0853 186.055 43.4474 193.488 45.8326 197.667C48.0514 201.852 49.1731 205.106 49.0129 206.45C49.4443 205.587 49.8942 204.736 50.3626 203.898C50.1469 203.849 53.321 194.893 49.8757 190.505Z" fill="#1ECEA5"/>
<path opacity="0.3" d="M53.5244 199.418C53.3826 199.418 56.3595 191.461 59.4658 188.453C62.4303 185.371 65.3024 187.467 65.6661 189.556C66.0297 191.646 63.9034 193.686 61.8079 194.881C59.6322 195.861 53.4813 199.27 53.5244 199.418Z" fill="#1ECEA5"/>
<path opacity="0.3" d="M39.4227 255.62C22.1655 227.522 17.8512 191.602 28.0884 161.661C28.1522 161.471 28.149 161.264 28.0795 161.076C28.01 160.888 27.8784 160.729 27.7063 160.626C27.6272 160.586 27.5403 160.563 27.4517 160.56C27.3631 160.557 27.2749 160.573 27.1929 160.607C27.111 160.64 27.0374 160.692 26.9771 160.757C26.9168 160.822 26.8712 160.899 26.8435 160.983C16.4707 191.232 20.7911 227.491 38.0668 255.972L39.4227 255.62Z" fill="#1ECEA5"/>
<path opacity="0.3" d="M37.5245 224.089C29.6786 225.938 31.2071 241.346 31.5461 241.408C32.1624 242.936 32.7787 244.453 33.469 245.963C33.1917 243.775 35.1639 239.109 39.6323 234.659C43.9528 230.049 44.9204 221.981 37.5245 224.089Z" fill="#1ECEA5"/>
<path opacity="0.3" d="M15.2072 230.727C7.58938 232.89 14.5909 243.491 21.0315 243.368C27.3427 243.497 31.8789 244.57 33.3581 246.024C32.6 244.557 31.8789 243.078 31.1824 241.587C30.9791 241.839 22.4922 229.001 15.2072 230.727Z" fill="#1ECEA5"/>
<path opacity="0.3" d="M34.6031 210.172C26.4984 210.462 25.7649 225.531 26.0793 225.661C26.4573 227.247 26.8682 228.825 27.3119 230.394C27.3736 228.249 30.0361 224.157 35.1824 220.755C40.1562 217.137 42.3257 209.556 34.6031 210.172Z" fill="#1ECEA5"/>
<path opacity="0.3" d="M11.3182 212.212C3.39225 212.829 8.85293 224.391 15.2751 225.5C21.5555 226.838 25.9252 228.742 27.1949 230.431C26.6648 228.89 26.1594 227.349 25.691 225.765C25.4568 225.969 18.9052 211.978 11.3182 212.212Z" fill="#1ECEA5"/>
<path opacity="0.3" d="M33.6972 196.095C25.5493 194.807 22.6402 209.248 22.9299 209.427C23.0778 211.021 23.2586 212.621 23.4723 214.228C23.8421 212.169 27.1024 208.743 32.7172 206.456C38.2457 203.954 41.4875 197.032 33.6972 196.095Z" fill="#1ECEA5"/>
<path opacity="0.3" d="M10.1164 193.531C2.1041 192.582 5.90068 204.853 12.1564 207.171C18.2457 209.685 22.332 212.373 23.3613 214.228C23.0531 212.638 22.7778 211.041 22.5354 209.439C22.2765 209.63 17.7095 194.807 10.1164 193.531Z" fill="#1ECEA5"/>
<path opacity="0.3" d="M34.8188 182.24C26.8558 179.399 21.8759 192.891 22.1347 193.106C22.0546 194.69 21.9991 196.28 21.9868 197.87C22.6525 195.954 26.4059 193.266 32.372 192.139C38.2332 190.795 42.4736 184.675 34.8188 182.24Z" fill="#1ECEA5"/>
<path opacity="0.3" d="M11.6018 175.134C3.72508 172.669 5.7528 185.353 11.6757 188.823C17.4076 192.459 21.1055 195.861 21.8698 197.864C21.7917 196.262 21.7465 194.659 21.7342 193.057C21.4445 193.186 19.01 177.858 11.6018 175.134Z" fill="#1ECEA5"/>
<path opacity="0.3" d="M37.9744 168.878C30.4182 164.564 23.4476 176.798 23.6879 177.051C23.3757 178.587 23.0963 180.13 22.8497 181.679C23.7927 179.935 27.9344 178.043 34.0669 178.111C40.1193 177.944 45.2656 172.767 37.9744 168.878Z" fill="#1ECEA5"/>
<path opacity="0.3" d="M15.8236 157.396C8.30439 153.427 8.42765 166.284 13.8822 170.826C19.0778 175.498 22.2889 179.547 22.7635 181.649C22.9175 180.071 23.1024 178.493 23.3243 176.928C22.973 177.014 22.7943 161.526 15.8236 157.396Z" fill="#1ECEA5"/>
<path opacity="0.3" d="M200.95 208.225C200.978 208.196 201.013 208.173 201.051 208.158C201.089 208.144 201.129 208.138 201.17 208.141C201.211 208.144 201.25 208.155 201.286 208.175C201.321 208.195 201.352 208.223 201.375 208.256C210.497 219.843 214.004 236.169 210.516 250.856C210.505 250.902 210.486 250.946 210.46 250.986L209.924 250.77C209.918 250.729 209.918 250.688 209.924 250.647C213.351 236.188 209.924 220.126 200.925 208.736C200.866 208.663 200.835 208.57 200.839 208.476C200.844 208.381 200.883 208.292 200.95 208.225Z" fill="#1ECEA5"/>
<path opacity="0.3" d="M206.146 236.601C209.844 236.299 211.446 243.047 211.311 243.134C211.274 243.867 211.224 244.607 211.157 245.34C210.953 244.373 209.4 242.659 206.793 241.396C204.248 240.027 202.627 236.73 206.146 236.601Z" fill="#1ECEA5"/>
<path opacity="0.3" d="M216.802 236.311C220.426 236.169 218.966 241.661 216.186 242.474C213.474 243.411 211.668 244.502 211.255 245.328C211.36 244.601 211.459 243.867 211.533 243.134C211.619 243.239 213.388 236.595 216.802 236.311Z" fill="#1ECEA5"/>
<path opacity="0.3" d="M205.332 230.259C208.889 229.254 211.446 235.565 211.335 235.664C211.403 236.391 211.465 237.118 211.502 237.852C211.163 236.946 209.394 235.578 206.664 234.844C203.97 234.006 201.912 231.085 205.332 230.259Z" fill="#1ECEA5"/>
<path opacity="0.3" d="M215.724 227.892C219.249 227.047 218.608 232.73 215.989 234.098C213.468 235.54 211.859 236.958 211.557 237.852C211.557 237.118 211.557 236.385 211.514 235.658C211.65 235.713 212.432 228.847 215.724 227.892Z" fill="#1ECEA5"/>
<path opacity="0.3" d="M203.631 224.157C206.972 222.468 210.38 228.206 210.281 228.323C210.454 229.026 210.614 229.735 210.762 230.444C210.294 229.618 208.371 228.595 205.591 228.428C202.836 228.132 200.402 225.636 203.631 224.157Z" fill="#1ECEA5"/>
<path opacity="0.3" d="M213.468 219.781C216.796 218.259 216.981 224.009 214.614 225.87C212.352 227.787 210.978 229.5 210.811 230.431C210.707 229.71 210.59 228.995 210.454 228.28C210.583 228.317 210.368 221.377 213.468 219.781Z" fill="#1ECEA5"/>
<path opacity="0.3" d="M201.086 218.413C204.112 216.095 208.278 221.137 208.198 221.272C208.469 221.932 208.728 222.604 208.969 223.276C208.396 222.554 206.368 221.932 203.619 222.283C200.882 222.53 198.134 220.514 201.086 218.413Z" fill="#1ECEA5"/>
<path opacity="0.3" d="M210.084 212.151C213.123 210 214.14 215.689 212.087 217.987C210.152 220.336 209.055 222.302 209.006 223.257C208.796 222.561 208.58 221.876 208.346 221.192C208.506 221.205 207.28 214.345 210.084 212.151Z" fill="#1ECEA5"/>
<path opacity="0.3" d="M197.733 213.168C200.359 210.277 205.203 214.511 205.129 214.659C205.49 215.263 205.842 215.88 206.183 216.508C205.511 215.892 203.434 215.67 200.79 216.551C198.152 217.322 195.175 215.836 197.733 213.168Z" fill="#1ECEA5"/>
<path opacity="0.3" d="M205.653 205.192C208.315 202.456 210.17 207.941 208.494 210.635C206.935 213.346 206.146 215.516 206.257 216.477C205.955 215.824 205.64 215.183 205.314 214.548C205.437 214.536 203.187 207.923 205.653 205.192Z" fill="#1ECEA5"/>
<path opacity="0.3" d="M203.07 211.078C203.169 211.078 201.073 205.205 198.898 202.776C196.722 200.348 194.793 201.488 194.54 202.918C194.288 204.348 195.773 206 197.252 207.054C198.775 207.96 203.095 210.98 203.07 211.078Z" fill="#1ECEA5"/>
<path opacity="0.3" d="M203.027 211.306H203.058C203.101 211.309 203.144 211.296 203.18 211.272C203.215 211.247 203.242 211.212 203.255 211.171C203.272 211.143 203.28 211.111 203.28 211.078C203.28 211.046 203.272 211.014 203.255 210.986C203.033 209.846 200.919 204.712 199.046 202.629C198.017 201.396 196.839 200.909 195.804 201.229C195.435 201.347 195.106 201.564 194.851 201.854C194.596 202.145 194.424 202.5 194.356 202.881C193.986 204.823 196.408 206.727 197.16 207.269C198.651 208.157 202.577 210.906 202.922 211.232C202.948 211.268 202.985 211.294 203.027 211.306ZM196.969 201.655C197.679 201.894 198.302 202.34 198.756 202.937C200.476 204.853 202.115 208.903 202.676 210.468C202.312 210.197 201.739 209.796 200.827 209.168C199.668 208.367 198.14 207.319 197.326 206.844C195.915 205.833 194.479 204.28 194.725 202.98C194.783 202.674 194.922 202.39 195.128 202.158C195.334 201.926 195.6 201.754 195.896 201.661C196.246 201.559 196.618 201.556 196.969 201.655Z" fill="#1ECEA5"/>
<path opacity="0.3" d="M212.969 251.99C225.079 234.006 228.136 209.23 220.932 187.153C220.882 187.025 220.881 186.884 220.93 186.756C220.979 186.628 221.074 186.524 221.197 186.462C221.259 186.441 221.326 186.433 221.392 186.438C221.458 186.444 221.522 186.463 221.58 186.495C221.638 186.527 221.689 186.571 221.729 186.624C221.769 186.676 221.798 186.737 221.813 186.801C229.092 209.106 226.059 234.129 213.93 252.373L212.969 251.99Z" fill="#1ECEA5"/>
<path opacity="0.3" d="M214.281 230.037C219.791 232.151 218.713 242.782 218.479 242.807C218.068 243.818 217.618 244.818 217.129 245.809C217.32 244.299 215.939 240.822 212.784 237.242C209.788 233.593 209.11 227.806 214.281 230.037Z" fill="#1ECEA5"/>
<path opacity="0.3" d="M229.985 236.97C235.335 239.263 230.405 245.993 225.899 245.254C221.462 244.699 218.275 244.995 217.221 245.87C217.758 244.915 218.263 243.953 218.75 242.973C218.898 243.171 224.864 235.017 229.985 236.97Z" fill="#1ECEA5"/>
<path opacity="0.3" d="M216.352 220.545C222.047 221.575 222.565 232.256 222.343 232.293C222.076 233.365 221.788 234.431 221.48 235.491C221.437 233.975 219.563 230.832 215.933 227.917C212.432 224.884 210.947 219.344 216.352 220.545Z" fill="#1ECEA5"/>
<path opacity="0.3" d="M232.71 224.348C238.257 225.581 234.442 233.149 229.93 233.272C225.517 233.574 222.448 234.462 221.554 235.51C221.932 234.482 222.285 233.441 222.614 232.385C222.781 232.582 227.403 223.43 232.71 224.348Z" fill="#1ECEA5"/>
<path opacity="0.3" d="M216.987 210.789C222.713 210.715 224.753 221.149 224.549 221.266C224.445 222.376 224.321 223.479 224.167 224.582C223.908 223.097 221.616 220.36 217.659 218.179C213.794 215.824 211.52 210.629 216.987 210.789Z" fill="#1ECEA5"/>
<path opacity="0.3" d="M233.554 211.405C239.181 211.553 236.512 219.787 232.118 220.773C227.841 221.926 224.975 223.393 224.254 224.595C224.469 223.504 224.66 222.413 224.827 221.31C225.012 221.433 228.223 211.485 233.554 211.405Z" fill="#1ECEA5"/>
<path opacity="0.3" d="M216.204 200.928C221.794 199.738 225.295 209.723 225.11 209.852C225.172 210.968 225.203 212.089 225.215 213.211C224.747 211.793 222.133 209.513 217.924 208.126C213.807 206.579 210.83 201.852 216.204 200.928Z" fill="#1ECEA5"/>
<path opacity="0.3" d="M232.506 198.296C238.053 197.347 236.617 206.068 232.457 207.898C228.432 209.87 225.831 211.886 225.301 213.211C225.359 212.097 225.39 210.976 225.394 209.846C225.597 209.969 227.304 199.455 232.506 198.296Z" fill="#1ECEA5"/>
<path opacity="0.3" d="M213.986 191.22C219.292 188.952 224.192 198.259 224.019 198.413C224.241 199.522 224.447 200.634 224.636 201.747C223.97 200.422 221.061 198.666 216.759 198.099C212.482 197.359 208.864 193.205 213.986 191.22Z" fill="#1ECEA5"/>
<path opacity="0.3" d="M229.566 185.408C234.842 183.387 234.744 192.398 230.928 195.035C227.28 197.79 225.024 200.305 224.691 201.735C224.586 200.613 224.457 199.485 224.297 198.364C224.519 198.462 224.648 187.596 229.566 185.408Z" fill="#1ECEA5"/>
<path d="M70.2392 150.536C70.1857 150.536 70.133 150.523 70.0851 150.499C69.9988 150.444 61.2901 145.415 55.5459 141.285C55.4789 141.238 55.4335 141.166 55.4196 141.085C55.4057 141.004 55.4246 140.921 55.472 140.854C55.5194 140.787 55.5915 140.741 55.6724 140.727C55.7533 140.714 55.8364 140.732 55.9034 140.78C61.1114 144.527 68.7724 149.02 70.1714 149.834C71.5705 148.176 81.3208 136.379 82.2823 129.439C82.3254 129.131 82.3501 128.823 82.3686 128.533C82.3733 128.453 82.4096 128.377 82.4695 128.323C82.5295 128.269 82.6083 128.24 82.6891 128.244C82.7714 128.248 82.8485 128.285 82.9038 128.346C82.9591 128.408 82.9883 128.488 82.9849 128.57C82.9849 128.878 82.9356 129.187 82.8924 129.519C81.8385 137.143 70.9357 149.889 70.4734 150.432C70.4437 150.464 70.4076 150.49 70.3673 150.508C70.327 150.526 70.2834 150.536 70.2392 150.536Z" fill="#263238"/>
<path d="M53.8634 139.948C53.794 139.947 53.7268 139.923 53.6723 139.88C52.7454 139.187 51.8831 138.411 51.0961 137.563C50.0941 136.441 49.3445 135.117 48.898 133.68C48.4514 132.244 48.3182 130.728 48.5075 129.236C48.683 128.134 49.1072 127.086 49.7479 126.172C50.3886 125.258 51.229 124.501 52.2055 123.96C56.717 121.347 63.8294 128.275 65.7647 130.321C65.9558 128.54 66.8556 123.942 71.1329 121.594C72.1781 121.004 73.333 120.634 74.5264 120.507C75.7199 120.379 76.9267 120.498 78.0728 120.854C78.9905 121.146 79.8375 121.625 80.5601 122.262C81.2826 122.898 81.8649 123.678 82.27 124.552C82.2877 124.589 82.2978 124.629 82.3 124.67C82.3021 124.71 82.2961 124.751 82.2823 124.789C82.2686 124.828 82.2473 124.863 82.2198 124.893C82.1923 124.923 82.1591 124.948 82.1221 124.965C82.0466 124.997 81.9617 124.999 81.8849 124.97C81.8081 124.942 81.7452 124.885 81.7091 124.811C81.3388 124.016 80.8074 123.307 80.1485 122.729C79.4896 122.151 78.7177 121.716 77.8817 121.452C76.8159 121.121 75.6936 121.011 74.5839 121.13C73.4742 121.249 72.4005 121.593 71.4288 122.142C66.3995 124.91 66.3317 131.005 66.3317 131.067C66.3331 131.129 66.3148 131.191 66.2794 131.243C66.2441 131.295 66.1934 131.335 66.1345 131.356C66.0759 131.378 66.0121 131.381 65.9516 131.366C65.891 131.351 65.8366 131.317 65.7955 131.27C65.7092 131.178 57.2409 121.772 52.5198 124.49C51.6191 124.987 50.8431 125.681 50.2505 126.521C49.6579 127.362 49.2642 128.326 49.0992 129.341C48.9258 130.744 49.0563 132.168 49.4816 133.517C49.907 134.865 50.6173 136.106 51.5645 137.156C52.3161 137.977 53.1413 138.728 54.0298 139.399C54.0933 139.45 54.1341 139.524 54.1434 139.605C54.1526 139.686 54.1295 139.767 54.0791 139.831C54.0529 139.864 54.0202 139.891 53.9832 139.911C53.9461 139.931 53.9054 139.944 53.8634 139.948Z" fill="#263238"/>
<path d="M187.841 160.2C187.789 160.201 187.738 160.189 187.693 160.164C187.647 160.139 187.609 160.103 187.582 160.059C187.299 159.602 180.605 148.891 179.749 145.168C179.484 144.087 179.454 142.963 179.661 141.87C179.869 140.777 180.308 139.741 180.95 138.832C181.452 138.171 182.097 137.633 182.837 137.258C183.577 136.883 184.392 136.682 185.222 136.669C189.006 136.539 191.188 143.116 191.822 145.297C192.636 144.12 194.75 141.673 198.251 141.6C199.402 141.557 200.544 141.833 201.549 142.396C202.555 142.959 203.386 143.788 203.952 144.792C204.932 146.678 204.654 148.841 203.181 150.881C201.875 152.479 200.293 153.83 198.51 154.869C198.476 154.896 198.437 154.916 198.394 154.927C198.352 154.938 198.309 154.94 198.266 154.933C198.223 154.926 198.182 154.91 198.146 154.886C198.109 154.862 198.079 154.831 198.055 154.794C198.032 154.757 198.017 154.716 198.011 154.673C198.005 154.63 198.008 154.586 198.02 154.544C198.032 154.502 198.053 154.463 198.081 154.43C198.109 154.397 198.144 154.37 198.183 154.351C199.898 153.353 201.422 152.057 202.682 150.524C204.013 148.675 204.272 146.74 203.403 145.076C202.898 144.186 202.162 143.451 201.272 142.947C200.382 142.443 199.372 142.191 198.349 142.216H198.257C194.115 142.277 192.001 146.148 191.983 146.191C191.953 146.247 191.908 146.292 191.852 146.321C191.796 146.35 191.733 146.362 191.67 146.354C191.608 146.346 191.549 146.319 191.503 146.276C191.456 146.234 191.424 146.179 191.41 146.117C191.41 146.025 189.154 137.113 185.246 137.254C184.507 137.265 183.78 137.443 183.12 137.776C182.46 138.11 181.885 138.589 181.437 139.177C180.851 140.013 180.45 140.965 180.261 141.968C180.073 142.972 180.102 144.004 180.346 144.995C181.117 148.336 186.997 157.938 187.97 159.479C190.449 158.474 192.872 157.339 195.231 156.077C195.303 156.039 195.387 156.031 195.465 156.054C195.543 156.077 195.61 156.129 195.65 156.2C195.669 156.236 195.681 156.276 195.685 156.316C195.689 156.357 195.685 156.398 195.673 156.437C195.661 156.476 195.641 156.512 195.615 156.543C195.589 156.575 195.557 156.601 195.52 156.619C193.064 157.935 190.538 159.114 187.952 160.151C187.918 160.174 187.881 160.19 187.841 160.2Z" fill="#263238"/>
<path d="M131.989 68.4168C131.937 68.4173 131.887 68.4045 131.841 68.3797C131.796 68.3549 131.758 68.3188 131.73 68.275C131.699 68.2257 128.649 63.3444 127.022 59.9423C127.004 59.9055 126.994 59.8656 126.992 59.8248C126.989 59.7841 126.995 59.7433 127.009 59.7049C127.023 59.6665 127.044 59.6312 127.072 59.601C127.099 59.5709 127.132 59.5465 127.169 59.5293C127.243 59.4956 127.327 59.4922 127.403 59.5198C127.479 59.5475 127.541 59.6041 127.576 59.6772C128.988 62.6233 131.508 66.7404 132.119 67.7265C133.505 67.1656 140.55 64.1949 142.596 61.3228C143.539 60.0224 143.724 58.6603 143.114 57.4831C142.751 56.8464 142.22 56.322 141.578 55.9675C140.937 55.6131 140.21 55.4423 139.478 55.4739C136.544 55.517 135.04 58.2597 135.028 58.2905C134.997 58.3456 134.951 58.3903 134.895 58.4189C134.839 58.4475 134.776 58.4585 134.713 58.4507C134.652 58.4417 134.594 58.4146 134.548 58.3729C134.502 58.3312 134.47 58.2768 134.454 58.2165C134.017 56.4292 132.408 51.8252 130.097 51.893C127.786 51.9608 126.763 53.8714 126.572 55.4739C126.568 55.514 126.556 55.5529 126.537 55.5883C126.517 55.6236 126.491 55.6547 126.459 55.6795C126.428 55.7043 126.391 55.7224 126.352 55.7326C126.313 55.7428 126.272 55.7449 126.233 55.7389C126.192 55.7343 126.153 55.7217 126.117 55.7018C126.081 55.682 126.05 55.6552 126.025 55.6231C126 55.5909 125.981 55.5541 125.97 55.5148C125.959 55.4754 125.956 55.4343 125.961 55.3938C126.27 52.9901 127.891 51.3815 130.097 51.3013C132.79 51.1904 134.374 55.6834 134.892 57.4276C135.409 56.6753 136.095 56.0537 136.894 55.6119C137.693 55.1701 138.584 54.9203 139.496 54.8822C140.341 54.8532 141.178 55.0561 141.915 55.469C142.653 55.8819 143.264 56.4889 143.681 57.2242C144.396 58.5925 144.192 60.2319 143.126 61.7111C140.723 65.0331 132.458 68.2873 132.106 68.4229C132.067 68.4273 132.028 68.4253 131.989 68.4168Z" fill="#263238"/>
<path d="M165.505 188.188C165.453 188.188 165.401 188.176 165.355 188.151C165.308 188.126 165.269 188.09 165.24 188.046C165.037 187.72 160.205 179.978 159.582 177.279C159.388 176.488 159.366 175.665 159.518 174.866C159.67 174.066 159.993 173.308 160.464 172.644C160.832 172.156 161.308 171.758 161.854 171.482C162.399 171.205 163.001 171.057 163.613 171.048H163.699C166.325 171.048 167.89 175.448 168.408 177.174C168.924 176.421 169.608 175.799 170.406 175.357C171.204 174.915 172.094 174.666 173.006 174.629H173.08C173.914 174.61 174.737 174.818 175.462 175.231C176.187 175.643 176.787 176.244 177.197 176.971C177.912 178.339 177.702 179.972 176.636 181.458C175.878 182.505 174.448 183.658 172.396 184.878C172.324 184.919 172.24 184.93 172.161 184.909C172.081 184.889 172.013 184.838 171.97 184.767C171.95 184.733 171.936 184.694 171.93 184.654C171.925 184.614 171.927 184.573 171.937 184.534C171.948 184.495 171.966 184.459 171.99 184.427C172.015 184.395 172.046 184.368 172.081 184.348C174.06 183.171 175.428 182.074 176.137 181.094C177.08 179.794 177.259 178.425 176.648 177.254C176.291 176.628 175.77 176.11 175.142 175.757C174.513 175.403 173.801 175.226 173.08 175.245H173.018C170.072 175.282 168.581 178.031 168.562 178.062C168.534 178.117 168.489 178.163 168.434 178.192C168.379 178.221 168.316 178.231 168.254 178.222C168.192 178.214 168.134 178.188 168.087 178.146C168.041 178.104 168.009 178.049 167.995 177.988C167.558 176.2 165.918 171.553 163.632 171.664C163.111 171.67 162.599 171.795 162.135 172.029C161.67 172.263 161.265 172.6 160.951 173.014C160.535 173.607 160.252 174.283 160.12 174.996C159.988 175.708 160.011 176.44 160.186 177.143C160.722 179.498 164.827 186.197 165.628 187.498C166.306 187.226 168.334 186.376 170.46 185.254C170.531 185.227 170.609 185.227 170.679 185.254C170.75 185.281 170.808 185.333 170.843 185.4C170.878 185.466 170.887 185.544 170.869 185.617C170.851 185.69 170.806 185.754 170.744 185.797C169.068 186.674 167.348 187.466 165.591 188.169L165.505 188.188Z" fill="#263238"/>
<path d="M237.961 46.0377C239.249 41.9946 241.455 37.027 239.434 37.4091C237.412 37.7912 231.163 44.9468 232.654 41.1071C234.146 37.2674 237.985 33.5694 237.437 31.5478C236.888 29.5263 232.291 27.6896 230.084 27.6896C227.878 27.6896 225.283 29.8591 222.91 34.272C220.537 38.6849 219.212 38.1302 219.212 38.1302C219.212 38.1302 226.201 27.289 225.098 23.9547C223.995 20.6203 213.517 14.796 211.865 14.2413C210.214 13.6866 204.513 21.2243 201.388 24.8976C198.263 28.571 206.349 13.323 206.534 11.1165C206.719 8.91007 203.409 9.8284 201.018 13.323C198.627 16.8176 194.238 24.1642 196.057 18.833C197.875 13.5017 201.751 8.72517 201.751 7.25215C201.753 7.11359 201.741 6.97521 201.714 6.83921L200.617 6.12427C200.617 6.12427 195.496 13.3538 192.784 18.4508C190.072 23.5479 188.562 29.9022 186.454 32.9161C184.346 35.9299 175.305 38.9438 173.197 44.3613C171.089 49.7788 170.485 59.7325 170.485 59.7325L160.556 74.2717C160.556 74.2717 160.094 74.888 164.538 75.7509C168.981 76.6138 177.702 82.6908 181.437 87.8494C185.172 93.0081 186.417 102.789 186.417 102.789C186.417 102.789 188.377 105.458 189.973 104.213C191.57 102.968 192.285 98.8756 196.026 95.4981C199.767 92.1206 207.052 80.2008 207.052 80.2008C207.052 80.2008 212.389 84.1145 217.529 79.6646C222.67 75.2147 230.337 55.295 234.959 49.785C235.865 48.7064 236.851 47.5169 237.868 46.3089C237.911 46.2288 237.93 46.1363 237.961 46.0377Z" fill="#1ECEA5"/>
<path d="M189.049 104.879C188.959 104.885 188.868 104.885 188.778 104.879C187.409 104.688 186.22 103.085 186.171 103.03C186.14 102.986 186.12 102.935 186.115 102.882C186.115 102.789 184.833 93.119 181.184 88.0898C177.634 83.1591 169.049 77.0328 164.482 76.1145C160.556 75.3318 160.34 74.7586 160.266 74.549C160.238 74.4829 160.227 74.4105 160.236 74.339C160.245 74.2675 160.272 74.1996 160.316 74.1423L170.177 59.6894C170.245 58.6971 170.904 49.4521 172.907 44.2811C174.226 40.8852 178.066 38.4815 181.456 36.3613C183.576 35.0424 185.406 33.896 186.195 32.7681C187.286 31.215 188.241 28.6695 189.277 25.9885C190.198 23.3804 191.281 20.8321 192.519 18.3583C195.212 13.2798 200.328 6.03178 200.377 5.97014C200.423 5.90529 200.492 5.86075 200.57 5.84581C200.649 5.83088 200.729 5.84672 200.796 5.89002L201.893 6.60496C201.962 6.65073 202.011 6.7214 202.029 6.80219C202.059 6.95854 202.073 7.11753 202.072 7.27676C202.072 8.02252 201.301 9.34763 200.223 11.1781C198.684 13.6382 197.389 16.2434 196.359 18.9562C196.219 19.3484 196.1 19.7475 196.001 20.1519C196.704 19.3506 198.164 17.1319 199.181 15.5725C199.748 14.7035 200.303 13.8653 200.778 13.1689C202.627 10.4817 204.919 9.30448 206.084 9.72359C206.36 9.83669 206.589 10.0426 206.729 10.3059C206.87 10.5692 206.914 10.8733 206.855 11.1658C206.768 12.1704 205.283 15.4123 203.711 18.8391C202.725 20.9901 201.542 23.5602 201.135 24.7558L201.166 24.725C201.745 24.0409 202.399 23.2273 203.132 22.3522C207.403 17.1442 210.528 13.4894 211.97 13.9701C213.739 14.5864 224.254 20.4662 225.4 23.9053C226.392 26.8883 221.351 35.332 219.853 37.7111C220.389 37.4029 221.32 36.5462 222.614 34.1487C224.981 29.7789 227.625 27.3691 230.053 27.3691C232.26 27.3691 237.092 29.2181 237.702 31.4553C238.053 32.7373 236.901 34.4815 235.569 36.4907C234.521 37.9624 233.63 39.5408 232.913 41.1995C232.815 41.4236 232.749 41.66 232.716 41.9021C233.66 41.3253 234.544 40.6542 235.354 39.899C236.876 38.6109 238.435 37.2796 239.372 37.1132C239.534 37.0674 239.706 37.0673 239.868 37.113C240.03 37.1587 240.176 37.2484 240.29 37.3721C240.962 38.1548 240.29 40.2688 239.095 43.6525C238.805 44.4845 238.509 45.3351 238.25 46.1178C238.25 46.1733 238.25 46.2287 238.207 46.278L238.176 46.4013C238.163 46.4439 238.143 46.4836 238.115 46.5184C237.104 47.7511 236.112 48.9159 235.206 49.9945C233.178 52.4105 230.559 57.637 227.81 63.1654C224.303 70.1608 220.679 77.3965 217.757 79.9111C213.153 83.8802 208.352 81.378 207.163 80.6445C206.029 82.4935 199.699 92.6075 196.241 95.7384C194.48 97.4233 193.058 99.4295 192.05 101.649C191.397 102.919 190.886 103.917 190.201 104.466C189.878 104.735 189.47 104.881 189.049 104.879ZM186.713 102.691C186.929 102.968 187.884 104.114 188.864 104.25C189.027 104.272 189.193 104.26 189.352 104.217C189.511 104.174 189.659 104.099 189.788 103.997C190.405 103.529 190.873 102.58 191.49 101.378C192.525 99.0927 193.99 97.0276 195.804 95.2947C199.465 91.9788 206.701 80.1823 206.774 80.0652C206.797 80.0293 206.826 79.9984 206.861 79.9742C206.896 79.95 206.935 79.9331 206.977 79.9244C207.018 79.9158 207.061 79.9156 207.102 79.9239C207.144 79.9322 207.183 79.9488 207.218 79.9727C207.428 80.1268 212.426 83.6707 217.332 79.455C220.155 77.0205 223.754 69.8465 227.23 62.9004C230.022 57.3535 232.654 52.0839 234.731 49.6124L237.591 46.1918V46.1486C237.604 46.0794 237.622 46.0113 237.646 45.9452C237.905 45.1255 238.201 44.2688 238.497 43.4306C239.286 41.1502 240.278 38.3089 239.804 37.7542C239.804 37.7542 239.711 37.6556 239.465 37.6987C238.7 37.8405 237.055 39.2334 235.73 40.3551C233.585 42.2041 232.79 42.7773 232.297 42.426C231.927 42.1671 232.087 41.5693 232.297 40.9653C233.026 39.2615 233.937 37.6415 235.015 36.1333C236.21 34.3213 237.338 32.614 237.067 31.5971C236.574 29.7974 232.186 27.9669 230.01 27.9669C227.834 27.9669 225.375 30.3151 223.163 34.4199C220.759 38.8574 219.354 38.5246 219.095 38.4137C219.053 38.3977 219.016 38.3721 218.986 38.3389C218.956 38.3057 218.934 38.2658 218.922 38.2226C218.907 38.18 218.902 38.1345 218.908 38.0896C218.913 38.0447 218.929 38.0017 218.953 37.9638C220.876 34.9807 225.671 26.6788 224.802 24.0779C223.76 20.9531 213.382 15.0672 211.767 14.5309C210.614 14.1488 206.22 19.5109 203.594 22.7158C202.873 23.5971 202.201 24.4107 201.622 25.101C201.227 25.5632 200.876 25.9269 200.543 25.7173C200.106 25.44 200.278 24.7928 203.138 18.5556C204.55 15.4739 206.152 11.9855 206.22 11.0918C206.257 10.6481 206.133 10.3769 205.856 10.2783C205.073 9.99477 202.984 10.9809 201.264 13.4955C200.796 14.1858 200.248 15.024 199.681 15.8869C196.673 20.4724 196.057 21.2304 195.545 20.9777C195.218 20.8237 195.169 20.4477 195.761 18.7343C196.801 15.9795 198.111 13.3347 199.674 10.8391C200.623 9.22436 201.437 7.83146 201.437 7.25211C201.443 7.17622 201.443 7.09995 201.437 7.02407L200.722 6.54333C197.969 10.4364 195.418 14.4684 193.08 18.6234C191.848 21.0735 190.774 23.5994 189.862 26.1857C188.833 28.9161 187.865 31.4985 186.731 33.1194C185.869 34.3521 183.989 35.5231 181.801 36.879C178.497 38.9499 174.744 41.2919 173.499 44.503C171.428 49.8158 170.812 59.677 170.806 59.7756C170.802 59.8312 170.783 59.8846 170.75 59.9297L160.889 74.3456C161.074 74.4997 161.807 74.9188 164.587 75.4735C169.271 76.4103 178.054 82.6907 181.678 87.6892C185.302 92.6876 186.577 101.661 186.713 102.691Z" fill="#263238"/>
<path d="M188.827 40.0162C188.764 40.0156 188.703 39.9959 188.652 39.9596C188.601 39.9234 188.562 39.8724 188.54 39.8134C188.519 39.7545 188.516 39.6904 188.532 39.6297C188.548 39.569 188.582 39.5147 188.63 39.4739C190.208 38.1919 191.095 37.2489 191.477 36.5155C192.981 33.5078 196.013 25.3661 196.044 25.286C196.072 25.2092 196.129 25.1466 196.203 25.1119C196.277 25.0772 196.362 25.0733 196.439 25.1011C196.515 25.1315 196.577 25.19 196.611 25.2645C196.645 25.3391 196.65 25.424 196.624 25.5017C196.593 25.5818 193.542 33.7543 192.032 36.7867C191.613 37.6187 190.688 38.5925 189.018 39.9485C188.965 39.9944 188.897 40.0186 188.827 40.0162Z" fill="white"/>
<path d="M173.037 65.5815C172.985 65.581 172.935 65.5683 172.889 65.5445C172.818 65.5044 172.766 65.4377 172.744 65.3591C172.722 65.2806 172.732 65.1965 172.772 65.1254L174.855 61.3596C174.997 60.5337 176.464 52.0469 178.504 48.3366C179.631 46.2966 182.676 44.0223 185.628 41.785L185.998 41.5077C186.064 41.4586 186.146 41.4376 186.227 41.4491C186.308 41.4607 186.381 41.5039 186.43 41.5693C186.479 41.6347 186.5 41.7169 186.488 41.7978C186.477 41.8787 186.433 41.9517 186.368 42.0007L185.998 42.2781C183.101 44.4537 180.106 46.7095 179.046 48.6324C176.994 52.3304 175.471 61.4213 175.453 61.5137C175.445 61.5474 175.435 61.5804 175.422 61.6123L173.308 65.4212C173.282 65.4703 173.243 65.5112 173.195 65.5395C173.147 65.5678 173.092 65.5823 173.037 65.5815Z" fill="white"/>
<path d="M168.279 74.1732C168.227 74.1727 168.176 74.16 168.131 74.1362C168.06 74.0959 168.007 74.0297 167.984 73.9516C167.961 73.8734 167.97 73.7893 168.007 73.7171L171.28 67.8188C171.297 67.7787 171.321 67.7425 171.353 67.7127C171.384 67.6828 171.422 67.66 171.463 67.6456C171.504 67.6312 171.547 67.6256 171.591 67.6292C171.634 67.6328 171.676 67.6455 171.714 67.6665C171.752 67.6875 171.785 67.7162 171.811 67.7509C171.837 67.7856 171.856 67.8253 171.865 67.8677C171.875 67.91 171.876 67.9538 171.867 67.9964C171.859 68.039 171.841 68.0793 171.816 68.1147L168.55 74.0191C168.522 74.0666 168.483 74.1059 168.435 74.133C168.387 74.1601 168.333 74.1739 168.279 74.1732Z" fill="white"/>
<path d="M209.073 31.2582C209.015 31.2562 208.957 31.2392 208.907 31.2089C208.838 31.1647 208.79 31.0951 208.773 31.0154C208.756 30.9356 208.771 30.8523 208.815 30.7836C210.411 28.269 211.323 26.5987 211.329 26.5803C211.369 26.5094 211.436 26.4569 211.514 26.4339C211.592 26.4109 211.676 26.4192 211.748 26.457C211.784 26.4763 211.815 26.5026 211.841 26.5341C211.867 26.5657 211.886 26.602 211.897 26.6409C211.908 26.6799 211.912 26.7207 211.908 26.761C211.903 26.8014 211.891 26.8405 211.872 26.8761C211.872 26.8761 210.941 28.5833 209.332 31.1164C209.305 31.1602 209.267 31.1963 209.221 31.2211C209.176 31.2459 209.125 31.2587 209.073 31.2582Z" fill="white"/>
<path d="M176.106 77.6123C176.063 77.6181 176.019 77.6181 175.977 77.6123C175.902 77.5774 175.844 77.5146 175.815 77.4374C175.786 77.3601 175.789 77.2746 175.822 77.1994L181.548 64.4167C181.591 64.1948 183.107 57.6741 186.362 53.6618C187.785 51.8991 189.813 50.4938 192.167 48.8667C195.249 46.7219 198.775 44.2936 202.029 40.2998C203.619 38.3398 205.191 36.2258 206.707 34.0255C206.729 33.99 206.758 33.9593 206.792 33.9354C206.826 33.9115 206.865 33.8947 206.906 33.8863C206.947 33.8778 206.989 33.8778 207.03 33.8861C207.071 33.8945 207.11 33.9111 207.144 33.935C207.179 33.9589 207.208 33.9895 207.23 34.025C207.252 34.0604 207.267 34.1001 207.273 34.1414C207.279 34.1827 207.277 34.2249 207.267 34.2654C207.256 34.3059 207.238 34.3438 207.212 34.3768C205.69 36.5895 204.13 38.6912 202.509 40.6881C199.218 44.7497 195.668 47.2026 192.537 49.3721C190.22 50.9746 188.223 52.3552 186.861 54.0501C183.693 57.9514 182.164 64.5277 182.146 64.6078L176.402 77.4521C176.374 77.5051 176.331 77.5487 176.278 77.5772C176.226 77.6057 176.166 77.6179 176.106 77.6123Z" fill="white"/>
<path d="M203.188 54.9005C203.128 54.9001 203.069 54.8807 203.021 54.845C202.987 54.8232 202.958 54.7948 202.935 54.7614C202.912 54.728 202.896 54.6904 202.888 54.6507C202.88 54.611 202.88 54.5701 202.888 54.5305C202.896 54.4908 202.912 54.4532 202.935 54.4198C208.402 46.3089 215.644 35.443 215.717 35.3136C215.739 35.2795 215.768 35.2501 215.801 35.2272C215.835 35.2043 215.872 35.1884 215.912 35.1803C215.952 35.1723 215.992 35.1723 216.032 35.1804C216.072 35.1884 216.109 35.2044 216.143 35.2273C216.21 35.2725 216.257 35.3425 216.273 35.4222C216.29 35.5018 216.274 35.5846 216.229 35.6526C216.155 35.7635 208.913 46.6294 203.446 54.7588C203.418 54.8014 203.379 54.8365 203.334 54.8612C203.289 54.8859 203.239 54.8994 203.188 54.9005Z" fill="white"/>
<path d="M182.596 82.5922C182.537 82.5921 182.479 82.5749 182.429 82.5429C182.394 82.5221 182.364 82.4944 182.34 82.4615C182.316 82.4285 182.299 82.3911 182.289 82.3513C182.28 82.3116 182.279 82.2704 182.286 82.2302C182.293 82.1901 182.309 82.1518 182.331 82.1176L190.731 68.9467C190.765 68.8936 190.815 68.8526 190.873 68.8296C190.904 68.8296 194.115 67.412 198.941 60.3551C199.557 59.4676 200.254 58.4321 201.024 57.2734C201.047 57.2398 201.076 57.211 201.11 57.1887C201.143 57.1663 201.181 57.1508 201.221 57.1431C201.261 57.1354 201.302 57.1356 201.341 57.1437C201.381 57.1517 201.419 57.1676 201.452 57.1902C201.486 57.2129 201.515 57.2419 201.537 57.2757C201.56 57.3095 201.575 57.3474 201.583 57.3872C201.591 57.4269 201.59 57.4678 201.582 57.5076C201.574 57.5473 201.558 57.585 201.536 57.6186C200.759 58.7588 200.056 59.8004 199.452 60.7002C194.898 67.3566 191.779 69.0823 191.2 69.3596L182.849 82.432C182.823 82.4776 182.787 82.5161 182.743 82.5441C182.698 82.5721 182.648 82.5886 182.596 82.5922Z" fill="white"/>
<path d="M226.115 40.3244C226.06 40.3255 226.007 40.3105 225.961 40.2812C225.89 40.2389 225.839 40.1707 225.819 40.0912C225.798 40.0117 225.809 39.9273 225.85 39.856L228.315 35.7327C228.335 35.6972 228.363 35.666 228.395 35.6411C228.427 35.6161 228.465 35.5979 228.504 35.5874C228.544 35.5769 228.585 35.5744 228.625 35.5801C228.666 35.5857 228.705 35.5994 228.74 35.6203C228.775 35.6411 228.806 35.6688 228.83 35.7017C228.855 35.7345 228.872 35.7719 228.882 35.8116C228.892 35.8514 228.894 35.8926 228.887 35.9331C228.881 35.9735 228.867 36.0122 228.845 36.0471L226.38 40.1765C226.352 40.2215 226.313 40.2587 226.266 40.2845C226.22 40.3104 226.168 40.3241 226.115 40.3244Z" fill="white"/>
<path d="M196.506 79.4428C196.448 79.4423 196.391 79.4253 196.342 79.3937C196.293 79.3621 196.254 79.3172 196.229 79.2642C196.205 79.2113 196.196 79.1525 196.203 79.0946C196.211 79.0368 196.235 78.9823 196.272 78.9374L200.488 73.8589C200.508 73.8371 200.53 73.8184 200.556 73.8034L208.734 68.4968L223.952 43.0856C223.971 43.0475 223.997 43.0137 224.03 42.9865C224.063 42.9593 224.101 42.9391 224.142 42.9274C224.183 42.9157 224.226 42.9126 224.269 42.9183C224.311 42.9241 224.351 42.9386 224.388 42.9608C224.424 42.9831 224.456 43.0127 224.48 43.0477C224.504 43.0827 224.521 43.1224 224.529 43.1642C224.538 43.2061 224.537 43.2492 224.528 43.2908C224.518 43.3325 224.501 43.3717 224.475 43.4061L209.227 68.8728C209.203 68.9129 209.169 68.9467 209.129 68.9714L200.962 74.2903L196.778 79.3319C196.744 79.3695 196.702 79.399 196.655 79.4182C196.608 79.4374 196.557 79.4458 196.506 79.4428Z" fill="white"/>
<path d="M188.507 89.0637C188.434 89.0625 188.365 89.0364 188.309 88.9898C188.278 88.9642 188.252 88.9326 188.233 88.8969C188.215 88.8612 188.203 88.8221 188.2 88.7818C188.196 88.7416 188.201 88.7011 188.213 88.6627C188.226 88.6243 188.246 88.5888 188.272 88.5583L194.319 81.2856C194.37 81.2231 194.445 81.1834 194.525 81.1754C194.606 81.1673 194.687 81.1914 194.75 81.2425C194.812 81.2962 194.85 81.3714 194.858 81.4527C194.866 81.5341 194.843 81.6154 194.793 81.6801L188.747 88.9528C188.718 88.988 188.681 89.0162 188.639 89.0354C188.598 89.0546 188.552 89.0642 188.507 89.0637Z" fill="white"/>
<path d="M228.777 52.5771C228.741 52.5828 228.703 52.5828 228.666 52.5771C228.629 52.5621 228.594 52.5399 228.565 52.5117C228.536 52.4834 228.513 52.4498 228.497 52.4125C228.481 52.3753 228.473 52.3353 228.472 52.2948C228.471 52.2543 228.479 52.2141 228.494 52.1765C230.09 48.2689 231.175 47.0178 231.218 46.9685C231.273 46.9112 231.348 46.8774 231.427 46.8741C231.507 46.8707 231.584 46.8981 231.644 46.9506C231.703 47.0031 231.741 47.0765 231.747 47.1556C231.754 47.2347 231.73 47.3134 231.68 47.3753C231.68 47.3753 230.608 48.6079 229.067 52.4107C229.039 52.4628 228.997 52.5061 228.946 52.5355C228.895 52.565 228.836 52.5794 228.777 52.5771Z" fill="white"/>
<path d="M190.99 97.8402C190.927 97.84 190.864 97.8206 190.812 97.7848C190.746 97.7366 190.701 97.6646 190.687 97.584C190.673 97.5035 190.691 97.4208 190.738 97.3533C192.186 95.3195 204.913 77.4398 206.09 76.6632C206.559 76.355 207.637 76.4105 209.505 76.5399C212.254 76.731 216.019 76.996 217.277 75.3936C219.083 73.1008 224.056 63.2889 226.651 56.9838C226.666 56.9462 226.688 56.9118 226.716 56.8827C226.745 56.8537 226.778 56.8305 226.816 56.8145C226.853 56.7984 226.893 56.7899 226.933 56.7893C226.974 56.7888 227.014 56.7962 227.052 56.8112C227.127 56.8439 227.187 56.9047 227.218 56.9807C227.249 57.0567 227.249 57.1419 227.218 57.218C224.58 63.6895 219.625 73.4028 217.764 75.7757C216.303 77.6247 212.352 77.3596 209.462 77.1562C208.13 77.0638 206.744 76.9652 206.429 77.1562C205.622 77.6925 196.907 89.7294 191.243 97.6862C191.218 97.7314 191.181 97.7693 191.137 97.7963C191.093 97.8233 191.042 97.8384 190.99 97.8402Z" fill="white"/>
<path d="M76.8771 181.34C76.8771 181.34 81.2345 175.59 83.1513 170.709C85.0681 165.827 86.1158 161.464 88.2052 159.898C90.2946 158.333 101.98 151.177 103.373 147.695C104.766 144.213 106.689 138.974 109.302 136.188C111.915 133.402 127.792 118.407 138.417 104.139C149.043 89.871 156.907 80.6076 158.288 77.9882C158.934 76.7032 159.693 75.4781 160.556 74.3272C160.556 74.3272 167.182 71.5414 177.468 79.9049C187.755 88.2685 188.975 95.4241 188.975 98.0373V101.526L144.34 143.19L90.8184 187.3C87.9712 187.108 85.217 186.208 82.8062 184.681C80.8872 183.468 78.9083 182.354 76.8771 181.34Z" fill="white"/>
<path d="M90.8185 187.578C90.6705 187.578 87.0219 187.578 82.6459 184.915C78.3625 182.351 76.7662 181.63 76.7477 181.624C76.7054 181.605 76.668 181.576 76.6383 181.541C76.6085 181.505 76.5872 181.463 76.576 181.418C76.5647 181.373 76.5638 181.326 76.5732 181.281C76.5827 181.235 76.6023 181.192 76.6306 181.156C76.6737 181.1 80.9819 175.381 82.8617 170.592C83.3424 169.359 83.7615 168.2 84.1683 167.066C85.4009 163.609 86.3809 160.903 88.0203 159.67C88.4579 159.344 89.3023 158.777 90.3624 158.068C94.4363 155.344 102.017 150.277 103.09 147.59L103.484 146.598C104.821 143.208 106.658 138.586 109.074 135.991C109.555 135.479 110.461 134.573 111.718 133.322C117.487 127.572 129.481 115.615 138.171 103.936C143.293 97.0514 147.854 91.2271 151.188 86.9682C154.886 82.2656 157.308 79.1593 158.017 77.8281C158.67 76.5275 159.442 75.2896 160.322 74.1301C160.353 74.0914 160.393 74.0616 160.439 74.0438C160.716 73.9267 167.348 71.2765 177.659 79.6709C188.445 88.4412 189.283 95.9481 189.283 98.0375V101.526C189.283 101.568 189.275 101.609 189.258 101.647C189.241 101.686 189.216 101.72 189.185 101.748L144.556 143.418L91.0157 187.504C90.9615 187.552 90.8911 187.579 90.8185 187.578ZM77.3455 181.205C78.0112 181.538 79.706 182.438 82.9603 184.373C85.3046 185.831 87.9623 186.71 90.7137 186.937L144.149 142.906L188.667 101.341V98.0005C188.667 95.9789 187.841 88.7124 177.271 80.127C167.829 72.4414 161.468 74.315 160.747 74.58C159.922 75.7017 159.19 76.889 158.559 78.1301C157.826 79.5106 155.379 82.6354 151.675 87.375C148.34 91.6277 143.78 97.4458 138.664 104.33C129.949 116.04 117.931 128.022 112.162 133.785C110.929 135.017 110.005 135.929 109.53 136.435C107.194 138.9 105.382 143.504 104.063 146.851L103.669 147.843C102.523 150.703 95.1328 155.646 90.726 158.598C89.6659 159.307 88.8339 159.861 88.4086 160.182C86.9171 161.297 85.9433 164.083 84.7661 167.307C84.3593 168.447 83.9402 169.624 83.4533 170.857C81.7707 175.042 78.2638 179.972 77.3455 181.205Z" fill="#263238"/>
<path d="M147.317 201.032C147.317 201.032 149.672 198.819 151.632 199.097C153.591 199.374 153.98 200.329 154.257 204.071C154.534 207.812 154.393 211.399 153.024 212.915C151.656 214.431 149.844 216.508 149.844 216.508C149.844 216.508 150.812 207.528 150.676 204.903C150.541 202.277 147.317 201.032 147.317 201.032Z" fill="white"/>
<path d="M149.807 216.816C149.767 216.825 149.725 216.825 149.684 216.816C149.624 216.79 149.573 216.746 149.54 216.689C149.507 216.633 149.492 216.567 149.499 216.502C149.499 216.409 150.467 207.51 150.331 204.94C150.202 202.548 147.25 201.353 147.206 201.34C147.158 201.322 147.114 201.291 147.081 201.251C147.047 201.211 147.025 201.163 147.015 201.112C147.007 201.061 147.01 201.008 147.027 200.959C147.043 200.91 147.071 200.865 147.108 200.829C147.206 200.736 149.573 198.524 151.65 198.813C153.826 199.128 154.263 200.336 154.541 204.071C154.886 208.816 154.454 211.781 153.216 213.149C151.853 214.647 150.06 216.718 150.041 216.736C150.01 216.764 149.973 216.786 149.932 216.8C149.892 216.813 149.85 216.819 149.807 216.816ZM147.884 200.927C148.809 201.396 150.83 202.665 150.966 204.859C151.102 207.054 150.485 213.143 150.239 215.547C150.892 214.807 151.921 213.63 152.784 212.687C153.887 211.454 154.282 208.57 153.949 204.058C153.659 200.169 153.209 199.596 151.582 199.362C150.214 199.208 148.587 200.379 147.884 200.927Z" fill="#263238"/>
<path d="M132.254 232.681C132.254 232.681 136.402 234.339 138.886 232.822C141.37 231.306 143.034 226.604 143.724 225.359C144.414 224.114 148.975 222.178 149.807 216.508C150.639 210.838 153.123 203.793 152.846 201.858C152.568 199.923 149.253 199.787 147.299 201.032C145.345 202.277 145.364 203.103 144.538 204.903C143.712 206.702 140.803 221.069 139.422 222.314C138.042 223.559 134.171 224.668 133.616 226.875C133.062 229.081 132.254 232.681 132.254 232.681Z" fill="white"/>
<path d="M136.223 233.772C134.826 233.735 133.445 233.464 132.137 232.97C132.069 232.943 132.012 232.892 131.978 232.826C131.944 232.76 131.935 232.685 131.952 232.613C131.952 232.576 132.79 228.989 133.339 226.801C133.733 225.205 135.607 224.2 137.265 223.306C137.961 222.963 138.619 222.55 139.231 222.074C140.026 221.359 141.598 214.992 142.639 210.776C143.08 208.744 143.625 206.737 144.273 204.761C144.433 204.41 144.562 204.101 144.679 203.818C145.165 202.387 146.198 201.207 147.552 200.536C148.906 199.865 150.47 199.758 151.903 200.237C152.227 200.367 152.512 200.58 152.728 200.855C152.945 201.13 153.085 201.457 153.135 201.803C153.29 202.887 152.679 205.279 151.903 208.305C151.231 210.918 150.479 213.883 150.085 216.545C149.468 220.804 146.763 223.035 145.154 224.373C144.713 224.689 144.318 225.067 143.983 225.494C143.841 225.741 143.656 226.16 143.434 226.647C142.553 228.582 141.086 231.818 139.034 233.069C138.18 233.557 137.207 233.801 136.223 233.772ZM132.612 232.49C133.524 232.804 136.735 233.778 138.726 232.557C140.612 231.405 142.035 228.274 142.886 226.394C143.12 225.876 143.305 225.463 143.453 225.192C143.823 224.693 144.27 224.256 144.778 223.898C146.424 222.536 148.914 220.483 149.505 216.453C149.979 213.656 150.597 210.885 151.354 208.151C152.075 205.309 152.704 202.85 152.587 201.889C152.547 201.643 152.443 201.413 152.285 201.221C152.127 201.03 151.92 200.883 151.687 200.798C151.002 200.56 150.272 200.48 149.552 200.563C148.832 200.646 148.139 200.891 147.527 201.279C146.453 201.881 145.654 202.874 145.296 204.052C145.173 204.342 145.043 204.668 144.877 205.02C144.581 205.636 143.977 208.101 143.28 210.924C141.777 217.026 140.556 221.753 139.687 222.536C139.04 223.044 138.34 223.48 137.598 223.836C136.057 224.668 134.307 225.605 133.974 226.918C133.475 228.792 132.815 231.614 132.612 232.49Z" fill="#263238"/>
<path d="M149.53 212.021C149.466 212.021 149.404 212.002 149.351 211.966L148.636 211.454C147.582 210.702 148.402 204.477 148.408 204.41C148.409 204.157 148.473 203.908 148.593 203.685C148.713 203.462 148.887 203.273 149.098 203.134C149.236 203.065 149.388 203.029 149.542 203.029C149.696 203.029 149.848 203.065 149.986 203.134C150.058 203.173 150.111 203.239 150.134 203.318C150.157 203.396 150.148 203.481 150.109 203.553C150.07 203.625 150.004 203.678 149.925 203.701C149.847 203.724 149.762 203.715 149.69 203.676C149.64 203.653 149.585 203.641 149.53 203.641C149.475 203.641 149.42 203.653 149.37 203.676C149.271 203.725 149.098 203.898 149.018 204.484C148.667 207.115 148.587 210.616 149.018 210.943L149.733 211.454C149.766 211.477 149.795 211.506 149.816 211.54C149.838 211.574 149.853 211.612 149.86 211.651C149.867 211.691 149.865 211.732 149.856 211.771C149.847 211.81 149.831 211.847 149.807 211.88C149.778 211.926 149.737 211.964 149.688 211.989C149.639 212.014 149.585 212.025 149.53 212.021Z" fill="#263238"/>
<path d="M150.861 203.313C150.794 203.312 150.729 203.289 150.676 203.248C150.622 203.207 150.584 203.15 150.567 203.085C150.549 203.02 150.554 202.951 150.579 202.888C150.604 202.826 150.649 202.774 150.707 202.74L152.692 201.593C152.763 201.552 152.847 201.541 152.927 201.562C153.006 201.583 153.075 201.634 153.117 201.704C153.138 201.739 153.151 201.778 153.156 201.818C153.161 201.858 153.158 201.899 153.148 201.939C153.137 201.978 153.118 202.014 153.093 202.046C153.067 202.078 153.036 202.104 153 202.123L151.015 203.27C150.969 203.299 150.916 203.314 150.861 203.313Z" fill="#263238"/>
<path d="M97.6967 228.12C97.6967 228.12 102.535 236.829 105.709 237.796C108.883 238.764 116.901 239.596 118.837 240.009C120.772 240.422 126.991 243.189 129.758 240.286C132.525 237.383 134.461 231.99 135.428 228.952C136.396 225.913 137.777 222.733 137.777 222.733L96.5873 224.804L97.6967 228.12Z" fill="#E0E0E0"/>
<path d="M126.103 241.907C124.083 241.798 122.09 241.395 120.186 240.711C119.613 240.539 119.12 240.385 118.781 240.311C118.122 240.169 116.71 239.972 115.083 239.75C111.811 239.294 107.743 238.733 105.635 238.092C102.375 237.1 97.6227 228.631 97.4378 228.274V228.218L96.3284 224.903C96.3128 224.858 96.308 224.81 96.3144 224.763C96.3208 224.715 96.3383 224.67 96.3654 224.631C96.3925 224.592 96.4282 224.559 96.4699 224.536C96.5116 224.512 96.558 224.499 96.6058 224.496L137.795 222.425C137.848 222.419 137.901 222.428 137.949 222.451C137.997 222.474 138.038 222.51 138.066 222.554C138.092 222.6 138.106 222.652 138.106 222.705C138.106 222.758 138.092 222.81 138.066 222.856C138.066 222.887 136.679 226.055 135.724 229.02C134.005 234.431 132.075 238.265 129.986 240.471C129.474 240.967 128.864 241.351 128.196 241.598C127.527 241.845 126.815 241.95 126.103 241.907ZM97.9802 227.997C98.2637 228.508 102.861 236.625 105.801 237.5C107.86 238.117 112.076 238.733 115.151 239.14C116.871 239.374 118.233 239.559 118.911 239.707C119.274 239.787 119.78 239.941 120.371 240.126C123.003 240.939 127.41 242.308 129.542 240.07C131.533 237.981 133.468 234.104 135.139 228.859C135.884 226.511 136.889 224.052 137.308 223.066L97.0125 225.094L97.9802 227.997Z" fill="#263238"/>
<path d="M123.379 81.6369C123.379 81.6369 122.713 77.4644 122.393 76.2194C122.072 74.9744 118.794 69.865 117.635 69.3473L116.482 68.8358C116.482 68.8358 112.347 50.7465 109.789 46.1425C107.231 41.5386 103.626 39.1472 102.282 38.6357C100.939 38.1241 98.1836 29.3907 97.1605 26.8576C96.1374 24.3245 94.2637 14.2352 87.4348 12.528C80.6059 10.8208 72.9326 22.5926 70.5412 25.6681C68.1499 28.7436 74.4673 15.0857 73.7585 10.4818C73.0497 5.8778 66.9789 -1.98039 48.8711 14.2352C30.7634 30.4508 30.1039 34.0255 32.3227 37.6002C34.5415 41.1749 46.4983 25.6558 44.4336 31.2829C42.3689 36.9099 36.2425 44.084 34.7079 49.5447C33.1732 55.0054 34.8805 58.5862 36.9267 59.6093C38.9729 60.6324 43.5892 61.4583 43.5892 61.4583C43.5892 61.4583 48.3164 61.3042 49.8942 62.3643L51.472 63.4306L63.0467 73.526C63.0467 73.526 64.4642 79.1963 64.7416 80.7925C65.0189 82.3888 66.1037 87.4489 67.2994 88.472C68.495 89.4951 79.0527 94.4566 79.0527 94.4566C79.3228 96.1255 80.097 97.6719 81.2715 98.888C82.4526 100.028 83.8866 100.873 85.4564 101.353C85.4564 101.353 87.4348 89.4951 99.3793 85.2301C106.493 82.6706 114.007 81.3996 121.567 81.4767L123.379 81.6369Z" fill="#EEEEEE"/>
<path d="M85.4687 101.649C85.4361 101.655 85.4027 101.655 85.3701 101.649C83.7911 101.077 82.3292 100.223 81.0558 99.1284C79.8022 97.9448 78.991 96.3681 78.7569 94.66C78.0296 94.2779 74.5597 92.472 69.8016 90.3087C65.5182 88.3673 65.2346 85.9636 65.0066 84.0283C64.967 83.5117 64.8698 83.0011 64.7169 82.506C64.3699 81.2986 64.1428 80.06 64.039 78.808C63.7739 76.7556 63.4781 74.4259 62.8063 73.7664C62.3071 73.2734 60.3965 71.6525 58.3687 69.9391C55.2871 67.3443 51.8048 64.3921 51.207 63.6463C50.3072 62.5185 45.771 61.5447 43.6015 61.7973C40.9821 62.087 30.4367 59.2642 26.2827 47.0609C22.2149 35.0857 15.4969 33.5017 15.4291 33.5017C15.3894 33.493 15.3518 33.4764 15.3184 33.4531C15.2851 33.4297 15.2567 33.4 15.235 33.3656C15.2132 33.3312 15.1984 33.2929 15.1916 33.2528C15.1847 33.2126 15.1858 33.1716 15.1949 33.1319C15.2029 33.0924 15.2188 33.0549 15.2415 33.0216C15.2643 32.9883 15.2935 32.9599 15.3273 32.9381C15.3612 32.9163 15.3992 32.9015 15.4389 32.8945C15.4786 32.8876 15.5193 32.8887 15.5586 32.8977C15.8482 32.9593 22.671 34.5556 26.8682 46.8884C31.1825 59.5724 42.036 61.3721 43.5091 61.2118C45.697 60.9715 50.5537 61.9083 51.6631 63.295C52.2239 64.0038 55.8356 67.0546 58.7385 69.5076C60.8649 71.3011 62.7015 72.8543 63.2131 73.3658C64.0266 74.1794 64.3225 76.5153 64.6121 78.771C64.7081 79.9789 64.9144 81.1755 65.2285 82.3458C65.4051 82.885 65.5148 83.4439 65.5551 84.0098C65.777 85.8588 66.0297 88.0036 69.9927 89.8033C75.3609 92.2686 79.0897 94.2286 79.1267 94.2471C79.17 94.2722 79.207 94.3069 79.2348 94.3486C79.2626 94.3902 79.2804 94.4378 79.2869 94.4874C79.4857 96.0993 80.232 97.5941 81.4009 98.7216C82.4419 99.5751 83.6054 100.267 84.8524 100.774C84.0108 98.4858 83.9609 95.9815 84.7106 93.6616C85.9926 89.6308 89.4995 86.1547 95.1451 83.3319C109.037 76.3858 121.068 80.429 123.157 81.2302C123.256 80.7001 123.293 79.2764 122.085 76.3365C120.415 72.2811 116.316 69.107 116.273 69.0762C116.223 69.0372 116.186 68.9832 116.168 68.9221C116.063 68.6016 113.703 60.9838 113.197 57.5508C112.735 54.309 110.794 47.3444 109.049 44.3614C108.193 42.8946 106.442 41.7359 104.735 40.6203C103.151 39.5725 101.653 38.5864 101.142 37.4339C100.828 36.7251 100.125 34.5495 99.2313 31.8006C97.333 25.9393 94.4609 17.0765 92.7969 14.5804C90.3747 10.9441 84.9941 4.57739 84.9387 4.5096C84.9071 4.47977 84.8822 4.44361 84.8656 4.4035C84.8491 4.36339 84.8411 4.32022 84.8424 4.27682C84.8436 4.23343 84.854 4.19079 84.8729 4.1517C84.8918 4.11261 84.9187 4.07795 84.9519 4.04999C84.9851 4.02202 85.0238 4.00139 85.0656 3.98944C85.1073 3.9775 85.1511 3.9745 85.1941 3.98065C85.2371 3.9868 85.2782 4.00196 85.3149 4.02514C85.3516 4.04832 85.383 4.07899 85.4071 4.11515C85.4625 4.17678 90.8677 10.5743 93.3084 14.2414C95.0218 16.8054 97.9062 25.7175 99.8168 31.6096C100.704 34.3461 101.407 36.5032 101.709 37.1565C102.147 38.1427 103.558 39.0795 105.074 40.0718C106.751 41.175 108.643 42.4261 109.573 44.0224C111.268 46.9253 113.271 53.7296 113.795 57.4337C114.251 60.614 116.439 67.7264 116.71 68.6201C117.327 69.0947 121.025 72.127 122.646 76.0715C124.378 80.281 123.693 81.6185 123.607 81.7664C123.568 81.8307 123.508 81.8787 123.436 81.9013C123.365 81.924 123.287 81.9199 123.219 81.8897C123.089 81.8342 110.362 76.3735 95.4039 83.8558C89.9186 86.5984 86.5165 89.9512 85.29 93.8156C84.5037 96.2289 84.6466 98.8488 85.6906 101.162C85.7198 101.217 85.7319 101.279 85.7253 101.341C85.7187 101.402 85.6937 101.46 85.6536 101.507C85.6115 101.576 85.5457 101.626 85.4687 101.649Z" fill="#263238"/>
<path d="M113.037 68.4166C113.037 68.4166 111.318 68.318 108.723 68.318C108.641 68.318 108.563 68.2855 108.505 68.2277C108.447 68.1699 108.415 68.0916 108.415 68.0098C108.415 67.9281 108.447 67.8497 108.505 67.7919C108.563 67.7341 108.641 67.7017 108.723 67.7017C111.342 67.7017 113.037 67.8003 113.08 67.8003C113.121 67.8026 113.16 67.813 113.197 67.8307C113.233 67.8484 113.266 67.8731 113.293 67.9035C113.32 67.9338 113.341 67.9692 113.354 68.0075C113.367 68.0459 113.372 68.0864 113.37 68.1269C113.364 68.2092 113.325 68.2858 113.263 68.34C113.201 68.3942 113.12 68.4217 113.037 68.4166Z" fill="#263238"/>
<path d="M73.8818 91.3072C73.8407 91.3049 73.8006 91.2943 73.7636 91.2762C73.7267 91.2581 73.6938 91.2328 73.6668 91.2018C73.6398 91.1708 73.6193 91.1347 73.6064 91.0956C73.5936 91.0566 73.5887 91.0153 73.5921 90.9744C73.5921 90.8634 74.4426 79.4305 83.0712 73.0207C88.384 69.07 98.3007 67.973 105.684 67.7388C105.766 67.7387 105.844 67.7701 105.902 67.8264C105.961 67.8827 105.995 67.9596 105.999 68.0408C106 68.1215 105.97 68.1996 105.915 68.2584C105.86 68.3172 105.783 68.3519 105.703 68.3551C98.4055 68.5831 88.6244 69.6617 83.441 73.5138C75.0405 79.751 74.1961 90.9066 74.1961 91.0175C74.1899 91.0965 74.154 91.1703 74.0958 91.224C74.0375 91.2777 73.961 91.3074 73.8818 91.3072Z" fill="#263238"/>
<path d="M86.874 28.3554C86.7922 28.3782 86.7047 28.3677 86.6308 28.3261C86.5568 28.2845 86.5024 28.2152 86.4795 28.1335C86.4566 28.0517 86.4671 27.9643 86.5088 27.8903C86.5504 27.8163 86.6197 27.7619 86.7014 27.739C88.2891 26.8264 89.9963 26.1397 91.7738 25.699C91.8142 25.6909 91.8559 25.6908 91.8964 25.6988C91.9369 25.7069 91.9754 25.7228 92.0097 25.7457C92.0441 25.7685 92.0736 25.798 92.0965 25.8323C92.1195 25.8666 92.1355 25.905 92.1436 25.9455C92.1517 25.986 92.1517 26.0276 92.1437 26.0681C92.1357 26.1086 92.1198 26.1471 92.0969 26.1815C92.074 26.2158 92.0446 26.2453 92.0103 26.2683C91.976 26.2912 91.9375 26.3072 91.897 26.3153C90.1815 26.7492 88.5331 27.4148 86.9972 28.2937C86.961 28.3228 86.919 28.3438 86.874 28.3554Z" fill="#263238"/>
<path d="M64.7231 71.2272H64.6738C64.6336 71.2205 64.5952 71.2059 64.5607 71.1842C64.5262 71.1626 64.4964 71.1343 64.4729 71.1011C64.4494 71.0679 64.4327 71.0303 64.4238 70.9906C64.4149 70.9509 64.414 70.9098 64.4211 70.8697C66.3855 61.2754 69.3733 51.9194 73.3332 42.9623C75.1453 38.7618 77.7914 34.9729 81.1112 31.8253C81.1399 31.7964 81.174 31.7735 81.2115 31.7578C81.2491 31.7422 81.2894 31.7341 81.33 31.7341C81.3707 31.7341 81.411 31.7422 81.4486 31.7578C81.4861 31.7735 81.5202 31.7964 81.5488 31.8253C81.5777 31.8539 81.6006 31.888 81.6163 31.9256C81.6319 31.9631 81.64 32.0034 81.64 32.0441C81.64 32.0848 81.6319 32.125 81.6163 32.1626C81.6006 32.2001 81.5777 32.2342 81.5488 32.2629C78.2903 35.356 75.6926 39.0776 73.9125 43.2027C69.9684 52.1123 66.997 61.4213 65.0497 70.9683C65.0363 71.0439 64.9956 71.112 64.9355 71.1597C64.8753 71.2074 64.7997 71.2314 64.7231 71.2272Z" fill="#263238"/>
<path d="M63.0898 51.8127C63.0081 51.8127 62.9297 51.7803 62.8719 51.7225C62.8141 51.6647 62.7816 51.5863 62.7816 51.5046C62.7816 40.7805 72.7846 24.3861 72.8832 24.2074C72.9266 24.1379 72.9957 24.0885 73.0754 24.07C73.1552 24.0515 73.239 24.0654 73.3085 24.1088C73.378 24.1521 73.4274 24.2212 73.4459 24.301C73.4644 24.3807 73.4504 24.4646 73.4071 24.534C73.3085 24.6943 63.3979 40.953 63.3979 51.5046C63.3979 51.5863 63.3655 51.6647 63.3077 51.7225C63.2499 51.7803 63.1715 51.8127 63.0898 51.8127Z" fill="#263238"/>
<path d="M150.085 190.388C149.943 189.279 149.672 187.343 149.672 187.343C149.672 187.343 148.562 170.758 148.562 155.689C148.562 140.62 148.427 134.265 146.35 129.15C144.882 125.74 142.978 122.535 140.686 119.615C140.686 119.615 130.732 100.675 128.106 94.4565C125.481 88.2378 123.379 81.6369 123.379 81.6369C123.379 81.6369 118.448 76.7679 105.573 77.3226C92.6982 77.8773 84.8524 85.1993 83.0465 90.1731C81.2407 95.1468 85.4687 101.341 85.4687 101.341C85.4687 101.341 101.493 119.572 105.438 123.319C109.382 127.066 113.395 138.29 113.16 142.265C112.926 146.24 101.45 154.425 99.1204 160.04C96.7907 165.655 93.0434 177.119 89.5303 184.132C86.0172 191.146 81.8139 198.869 80.9017 202.382C79.9895 205.895 74.1221 215.01 73.8817 217.821C73.6414 220.631 77.2777 221.901 78.9356 221.901C80.1432 221.87 81.3457 221.732 82.5288 221.488C82.5288 221.488 81.4256 223.423 86.122 225.081C90.8184 226.739 104.23 229.778 106.461 229.506C108.692 229.235 110.744 227.152 113.37 225.192C115.995 223.232 130.51 212.866 131.342 212.342C132.174 211.818 139.909 205.981 142.954 204.046C145.998 202.111 149.308 199.208 149.733 196.44C150.075 194.442 150.193 192.412 150.085 190.388ZM102.535 208.218C99.3546 211.257 97.142 216.785 97.142 216.785C97.142 216.785 91.8908 214.85 90.7876 215.128C92.3634 213.693 93.7546 212.067 94.9293 210.289C97.2248 206.209 99.3027 202.01 101.154 197.71C101.845 195.775 107.65 196.052 107.65 198.4C107.65 200.749 105.715 205.174 102.535 208.218Z" fill="#E0E0E0"/>
<path d="M106.091 229.827C103.065 229.827 90.5595 226.986 85.9802 225.371C83.86 224.619 82.5842 223.707 82.1898 222.653C82.0954 222.408 82.0575 222.144 82.0788 221.882C81.0295 222.079 79.9658 222.188 78.8986 222.209C77.2301 222.152 75.6421 221.478 74.4425 220.317C74.1192 219.986 73.8714 219.588 73.7161 219.152C73.5608 218.716 73.5016 218.251 73.5427 217.79C73.6721 216.218 75.3917 212.952 77.1975 209.5C78.6459 206.739 80.1436 203.886 80.5688 202.302C81.2899 199.584 83.9278 194.431 86.7321 188.977C87.5826 187.319 88.4393 185.642 89.2652 183.997C91.5395 179.448 93.8754 173.119 95.9401 167.528C97.0125 164.632 98.0233 161.895 98.843 159.923C99.9955 157.162 103.237 153.864 106.368 150.678C109.647 147.338 112.741 144.188 112.858 142.247C113.08 138.425 109.253 127.319 105.234 123.541C101.216 119.763 85.3824 101.698 85.2221 101.544C85.0249 101.255 80.9078 95.1345 82.7568 90.0683C84.4702 85.3226 92.1743 77.5876 105.561 77.0083C118.405 76.4536 123.391 81.2178 123.595 81.4212C123.632 81.4545 123.659 81.497 123.675 81.5445C123.675 81.6123 125.801 88.2008 128.39 94.3394C130.978 100.478 140.858 119.282 140.957 119.473C143.256 122.403 145.167 125.618 146.639 129.039C148.778 134.327 148.87 141.032 148.87 155.689C148.87 170.573 149.967 187.122 149.974 187.325C149.974 187.325 150.251 189.248 150.387 190.345C150.485 192.408 150.346 194.476 149.974 196.508C149.462 199.917 144.969 203.109 143.058 204.323C140.951 205.667 136.476 208.952 133.813 210.912C132.581 211.799 131.724 212.44 131.465 212.613C130.664 213.149 116.057 223.565 113.512 225.463C112.895 225.907 112.328 226.357 111.774 226.795C109.881 228.292 108.242 229.58 106.455 229.802C106.334 229.818 106.213 229.826 106.091 229.827ZM82.4918 221.198C82.5398 221.197 82.5873 221.208 82.6303 221.23C82.6732 221.251 82.7103 221.283 82.7383 221.322C82.7714 221.372 82.7891 221.431 82.7891 221.491C82.7891 221.551 82.7714 221.61 82.7383 221.661C82.6832 221.79 82.6548 221.93 82.6548 222.07C82.6548 222.211 82.6832 222.351 82.7383 222.48C82.9725 223.097 83.7491 223.96 86.1528 224.81C90.7691 226.437 104.217 229.482 106.331 229.217C107.946 229.013 109.518 227.775 111.348 226.339C111.903 225.895 112.488 225.439 113.099 224.989C115.73 223.047 130.189 212.718 131.077 212.126C131.323 211.96 132.242 211.288 133.401 210.437C136.082 208.471 140.562 205.186 142.695 203.83C146.516 201.396 149 198.635 149.326 196.434C149.689 194.457 149.828 192.446 149.739 190.437C149.604 189.334 149.326 187.399 149.326 187.399C149.326 187.214 148.217 170.61 148.217 155.701C148.217 140.126 148.038 134.241 146.029 129.279C144.569 125.899 142.68 122.722 140.408 119.825C140.273 119.584 130.387 100.749 127.786 94.5921C125.32 88.7925 123.324 82.5861 123.077 81.8218C122.51 81.3226 117.407 77.1315 105.549 77.6369C92.464 78.204 84.9571 85.6985 83.2992 90.2902C81.5734 95.0605 85.635 101.119 85.672 101.181C85.8076 101.329 101.697 119.412 105.598 123.103C109.721 126.98 113.647 138.37 113.413 142.296C113.29 144.472 110.116 147.701 106.75 151.122C103.669 154.265 100.464 157.519 99.3545 160.169C98.5348 162.129 97.5055 164.86 96.4578 167.756C94.3869 173.359 92.0387 179.707 89.7521 184.286C88.9324 185.932 88.0695 187.615 87.219 189.273C84.4455 194.696 81.8261 199.818 81.1174 202.474C80.6798 204.12 79.2314 206.881 77.7029 209.796C75.9957 213.044 74.233 216.403 74.1097 217.858C74.0787 218.233 74.1286 218.61 74.2562 218.964C74.3839 219.319 74.5861 219.641 74.8493 219.91C75.9343 220.943 77.3584 221.546 78.8554 221.605C80.0404 221.575 81.2202 221.439 82.3808 221.198H82.4918ZM97.1419 217.112C97.1072 217.118 97.0718 217.118 97.0371 217.112C95.0402 216.379 91.6011 215.263 90.8738 215.466C90.8065 215.482 90.7359 215.476 90.6726 215.448C90.6093 215.42 90.5566 215.373 90.5225 215.312C90.492 215.251 90.4821 215.181 90.4943 215.113C90.5065 215.046 90.5402 214.984 90.5903 214.936C92.144 213.519 93.5183 211.917 94.6828 210.166C96.9518 206.103 99.009 201.925 100.846 197.648C101.296 196.373 103.453 195.941 105.277 196.256C106.942 196.545 107.94 197.359 107.94 198.437C107.94 200.903 105.949 205.402 102.726 208.477C99.6442 211.436 97.4316 216.884 97.4131 216.94C97.3852 216.987 97.3455 217.026 97.298 217.053C97.2504 217.08 97.1966 217.094 97.1419 217.094V217.112ZM91.5456 214.856C93.3933 215.226 95.2073 215.748 96.9693 216.416C97.4686 215.245 99.5024 210.708 102.319 208.015C105.401 205.051 107.342 200.724 107.342 198.419C107.342 197.531 106.233 197.026 105.191 196.847C103.644 196.576 101.771 196.915 101.444 197.833C99.591 202.155 97.5047 206.373 95.1943 210.468C94.1512 212.061 92.9268 213.527 91.5456 214.838V214.856Z" fill="#263238"/>
<path d="M82.2454 220.391C82.1938 220.391 82.1431 220.378 82.0974 220.354C82.0266 220.314 81.9741 220.248 81.9511 220.169C81.9281 220.091 81.9364 220.007 81.9742 219.935C82.646 218.702 83.7677 216.601 83.1699 213.913C82.6028 211.356 78.7076 210.061 78.6707 210.043C78.6325 210.031 78.597 210.012 78.5664 209.986C78.5357 209.96 78.5105 209.929 78.4921 209.893C78.4738 209.858 78.4627 209.819 78.4595 209.779C78.4563 209.739 78.461 209.699 78.4734 209.661C78.4854 209.622 78.5049 209.586 78.531 209.554C78.557 209.523 78.589 209.497 78.6251 209.478C78.6612 209.459 78.7007 209.448 78.7413 209.444C78.782 209.44 78.8229 209.445 78.8617 209.457C79.0343 209.519 83.1267 210.875 83.7923 213.772C84.458 216.668 83.176 218.986 82.5597 220.225C82.5296 220.28 82.4837 220.326 82.4277 220.356C82.3718 220.385 82.3083 220.397 82.2454 220.391Z" fill="#263238"/>
<path d="M111.028 183.313H110.954C110.874 183.292 110.806 183.241 110.763 183.171C110.721 183.101 110.707 183.017 110.726 182.937C110.88 182.32 111.009 181.741 111.133 181.199C111.256 180.656 111.342 180.28 111.441 179.88C111.45 179.84 111.467 179.802 111.491 179.769C111.516 179.736 111.546 179.708 111.581 179.687C111.616 179.666 111.655 179.651 111.695 179.645C111.736 179.639 111.777 179.642 111.817 179.652C111.856 179.662 111.893 179.679 111.925 179.704C111.958 179.728 111.985 179.759 112.006 179.794C112.026 179.828 112.04 179.867 112.046 179.907C112.051 179.947 112.049 179.988 112.039 180.028C111.94 180.422 111.841 180.86 111.737 181.334C111.632 181.809 111.478 182.474 111.324 183.085C111.307 183.15 111.269 183.208 111.215 183.25C111.162 183.291 111.096 183.313 111.028 183.313Z" fill="#263238"/>
<path d="M102.325 196.292C102.253 196.291 102.183 196.265 102.128 196.218C102.097 196.193 102.071 196.161 102.052 196.126C102.033 196.09 102.022 196.051 102.018 196.011C102.015 195.97 102.02 195.93 102.032 195.891C102.045 195.853 102.065 195.818 102.091 195.787C102.091 195.787 103.878 193.648 106.991 190.536C108.237 189.234 109.191 187.682 109.789 185.981C109.819 185.905 109.878 185.844 109.953 185.81C110.028 185.777 110.113 185.774 110.19 185.803C110.228 185.817 110.263 185.839 110.293 185.867C110.322 185.895 110.346 185.928 110.363 185.965C110.379 186.003 110.388 186.043 110.389 186.084C110.39 186.125 110.383 186.165 110.368 186.203C109.737 187.983 108.735 189.609 107.428 190.974C104.347 194.055 102.584 196.163 102.566 196.182C102.536 196.217 102.5 196.245 102.458 196.264C102.416 196.283 102.371 196.293 102.325 196.292Z" fill="#263238"/>
<path d="M111.102 199.954C111.045 199.955 110.99 199.94 110.942 199.911C110.906 199.89 110.876 199.862 110.852 199.829C110.828 199.796 110.811 199.759 110.801 199.719C110.792 199.679 110.791 199.638 110.798 199.598C110.805 199.558 110.821 199.519 110.843 199.485C111.145 199.005 113.481 197.402 114.412 196.773L113.604 195.763C112.476 194.351 113.764 191.602 113.82 191.485C113.835 191.446 113.859 191.41 113.889 191.38C113.919 191.35 113.954 191.327 113.994 191.311C114.033 191.296 114.075 191.288 114.117 191.29C114.16 191.291 114.201 191.302 114.24 191.32C114.278 191.338 114.312 191.364 114.339 191.396C114.367 191.428 114.388 191.465 114.401 191.506C114.413 191.546 114.418 191.589 114.413 191.631C114.409 191.673 114.395 191.714 114.375 191.75C114.048 192.447 113.345 194.456 114.085 195.374L115.102 196.65C115.129 196.683 115.149 196.722 115.161 196.763C115.173 196.805 115.176 196.848 115.17 196.891C115.163 196.933 115.148 196.974 115.124 197.01C115.101 197.046 115.07 197.077 115.034 197.1C113.741 197.905 112.515 198.812 111.367 199.812C111.338 199.856 111.299 199.892 111.252 199.916C111.206 199.941 111.154 199.954 111.102 199.954Z" fill="#263238"/>
<path d="M82.4919 221.796C82.4102 221.801 82.3298 221.773 82.2686 221.719C82.2073 221.665 82.1701 221.588 82.1652 221.507C82.1603 221.425 82.1881 221.344 82.2424 221.283C82.2967 221.222 82.3732 221.185 82.4549 221.18C85.8817 220.785 90.4672 215.017 90.5411 214.936C90.594 214.874 90.6688 214.834 90.7501 214.825C90.8315 214.816 90.9133 214.838 90.9787 214.887C91.0422 214.938 91.083 215.012 91.0923 215.093C91.1015 215.174 91.0784 215.255 91.028 215.319C90.8308 215.565 86.2083 221.371 82.5289 221.79L82.4919 221.796Z" fill="#263238"/>
<path d="M81.2345 177.156C80.0306 177.553 78.9412 178.237 78.0598 179.148C77.1785 180.06 76.5315 181.172 76.1745 182.388C74.9418 186.573 78.0974 186.918 79.139 192.323C80.1806 197.729 81.2345 203.658 84.5442 202.961C87.8539 202.265 90.8184 199.473 92.3901 193.716C93.9617 187.96 92.7414 180.293 90.3007 178.548" fill="white"/>
<path d="M84.0265 203.325C83.5342 203.324 83.0534 203.176 82.646 202.899C80.6059 201.544 79.7492 197.118 78.948 192.835L78.8617 192.385C78.5285 190.66 77.8537 189.019 76.8771 187.559C75.928 186.012 75.1822 184.792 75.9033 182.302C76.2717 181.04 76.9426 179.888 77.8578 178.945C78.773 178.002 79.9046 177.296 81.1544 176.89C81.2362 176.869 81.323 176.881 81.3958 176.924C81.4686 176.967 81.5215 177.037 81.5427 177.118C81.564 177.2 81.5519 177.287 81.5091 177.36C81.4664 177.433 81.3964 177.485 81.3147 177.507C80.1649 177.897 79.1252 178.556 78.2824 179.43C77.4396 180.304 76.8183 181.367 76.4703 182.53C75.8232 184.755 76.4703 185.821 77.3764 187.294C78.3927 188.816 79.0947 190.526 79.4411 192.323L79.5273 192.773C80.3347 196.927 81.1606 201.229 82.9849 202.443C83.2024 202.589 83.4477 202.689 83.7054 202.736C83.9632 202.782 84.2278 202.775 84.4826 202.715C88.0573 201.956 90.6891 198.838 92.0943 193.691C93.6721 187.904 92.3223 180.428 90.122 178.856C90.0887 178.833 90.0603 178.803 90.0385 178.769C90.0168 178.735 90.002 178.696 89.9951 178.656C89.9883 178.616 89.9894 178.575 89.9985 178.535C90.0076 178.496 90.0244 178.458 90.0481 178.425C90.0972 178.36 90.1696 178.317 90.2501 178.304C90.3306 178.291 90.4128 178.31 90.4795 178.357C93.0989 180.206 94.2329 188.218 92.686 193.858C90.837 200.638 87.2684 202.758 84.6059 203.312C84.4138 203.337 84.2195 203.341 84.0265 203.325Z" fill="#263238"/>
<path d="M82.7569 202.289C82.7005 202.291 82.6449 202.276 82.5966 202.246C82.5617 202.225 82.5312 202.198 82.507 202.165C82.4828 202.132 82.4653 202.095 82.4556 202.055C82.4458 202.016 82.444 201.975 82.4503 201.935C82.4565 201.894 82.4706 201.856 82.4919 201.821C82.4919 201.821 84.045 199.239 85.2592 197.414C86.4734 195.59 86.8925 194.289 86.0358 191.436C85.6968 190.289 84.9818 189.648 84.1375 189.667C83.2007 189.704 82.0604 190.672 81.6228 192.749C81.1673 195.347 81.2028 198.009 81.7276 200.594C81.7456 200.676 81.7304 200.762 81.6853 200.832C81.6402 200.903 81.569 200.952 81.4873 200.97C81.4055 200.988 81.32 200.973 81.2495 200.928C81.179 200.883 81.1293 200.812 81.1113 200.73C80.5635 198.059 80.528 195.309 81.0065 192.625C81.4503 190.524 82.6644 189.125 84.0882 189.063C85.2222 189.026 86.1837 189.858 86.6028 191.269C87.5273 194.351 87.0835 195.762 85.7461 197.766C84.5134 199.578 83.0096 202.129 82.9973 202.154C82.9698 202.193 82.934 202.225 82.8924 202.249C82.8508 202.272 82.8045 202.286 82.7569 202.289Z" fill="#263238"/>
<path d="M96.4517 207.799C96.4517 207.799 102.67 214.992 104.606 216.65C106.541 218.308 112.069 216.786 113.456 215.96C114.843 215.134 128.106 211.121 131.145 209.599C134.183 208.077 137.505 204.052 138.473 202.819C139.441 201.587 143.034 198.949 143.447 196.736C143.86 194.524 141.511 191.35 136.667 192.866C131.823 194.382 122.849 198.672 122.849 198.672L111.096 199.639C111.096 199.639 104.741 194.253 101.148 197.704L96.4517 207.799Z" fill="white"/>
<path d="M107.392 217.704C106.332 217.782 105.279 217.493 104.409 216.884C102.479 215.226 96.4764 208.299 96.2175 208.003C96.1782 207.958 96.1531 207.902 96.1455 207.843C96.1378 207.784 96.1478 207.723 96.1744 207.67L100.877 197.581L100.945 197.488C104.489 194.08 110.344 198.622 111.213 199.337L122.775 198.382C123.515 198.031 131.977 194.037 136.587 192.588C139.798 191.578 141.641 192.638 142.454 193.359C142.945 193.776 143.322 194.311 143.55 194.913C143.777 195.516 143.848 196.167 143.755 196.804C143.447 198.456 141.592 200.212 140.106 201.624C139.615 202.061 139.152 202.528 138.72 203.023C138.054 203.879 134.553 208.249 131.293 209.883C129.629 210.708 124.982 212.268 120.877 213.642C117.456 214.782 114.227 215.861 113.616 216.231C111.671 217.162 109.548 217.664 107.392 217.704ZM96.8153 207.75C97.7214 208.792 103.065 214.924 104.828 216.416C106.59 217.907 111.946 216.514 113.314 215.695C113.98 215.294 117.093 214.252 120.71 213.05C124.797 211.682 129.425 210.135 131.046 209.322C134.19 207.75 137.61 203.479 138.27 202.635C138.717 202.114 139.199 201.624 139.712 201.168C141.062 199.892 142.911 198.141 143.182 196.687C143.256 196.153 143.193 195.61 142.999 195.107C142.805 194.605 142.486 194.16 142.072 193.815C141.357 193.199 139.724 192.249 136.803 193.199C132.045 194.696 123.114 198.943 123.022 198.986C122.99 199.005 122.954 199.016 122.917 199.017L111.163 199.984C111.123 199.988 111.083 199.983 111.045 199.97C111.007 199.957 110.972 199.937 110.942 199.91C110.88 199.861 104.778 194.782 101.444 197.926L96.8153 207.75Z" fill="#263238"/>
<path d="M136.23 203.701C135.984 203.699 135.742 203.642 135.521 203.534C135.014 203.219 134.592 202.786 134.289 202.272C133.987 201.758 133.813 201.178 133.783 200.582C133.616 198.967 136.002 196.699 138.615 194.487C138.861 194.277 139.065 194.105 139.2 193.981C140.371 192.927 142.627 194.092 142.72 194.142C142.756 194.16 142.787 194.185 142.814 194.216C142.84 194.247 142.859 194.282 142.871 194.321C142.883 194.359 142.888 194.4 142.884 194.44C142.88 194.48 142.868 194.519 142.849 194.554C142.812 194.627 142.748 194.682 142.67 194.707C142.593 194.733 142.509 194.727 142.436 194.69C141.887 194.4 140.322 193.803 139.613 194.437C139.471 194.567 139.262 194.739 138.997 194.955C137.573 196.188 134.227 199.004 134.387 200.502C134.409 200.993 134.547 201.473 134.789 201.901C135.031 202.329 135.37 202.694 135.78 202.967C135.918 203.043 136.073 203.08 136.231 203.075C136.388 203.069 136.541 203.022 136.673 202.937C136.742 202.897 136.823 202.886 136.899 202.905C136.976 202.924 137.043 202.971 137.085 203.038C137.128 203.104 137.143 203.184 137.129 203.262C137.114 203.339 137.07 203.408 137.006 203.454C136.777 203.61 136.507 203.695 136.23 203.701Z" fill="#263238"/>
<path d="M109.031 228.262C109.031 228.262 114.972 236.97 118.276 236.138C121.579 235.306 138.042 225.217 140.39 223.701C142.738 222.185 143.847 217.618 145.364 212.502C146.88 207.386 148.131 204.49 147.576 203.257C147.021 202.024 143.015 201.464 139.564 203.676C136.112 205.889 132.926 211.257 132.926 211.257L109.031 228.262Z" fill="white"/>
<path d="M117.844 236.502C114.325 236.502 109.012 228.779 108.778 228.434C108.732 228.368 108.714 228.286 108.728 228.206C108.742 228.127 108.787 228.056 108.852 228.009L132.71 211.047C133.08 210.431 136.088 205.501 139.41 203.399C141.918 201.79 144.741 201.581 146.424 202.086C146.725 202.146 147.01 202.269 147.26 202.446C147.511 202.623 147.721 202.851 147.878 203.115C148.34 204.151 147.743 206.031 146.75 209.143C146.424 210.16 146.06 211.306 145.678 212.588C145.518 213.131 145.363 213.667 145.209 214.197C143.903 218.671 142.775 222.536 140.575 223.96C138.109 225.568 121.752 235.59 118.387 236.44C118.209 236.481 118.027 236.501 117.844 236.502ZM109.456 228.335C111.219 230.85 115.755 236.453 118.214 235.842C121.475 235.023 137.863 224.976 140.242 223.442C142.245 222.141 143.323 218.382 144.618 214.024C144.772 213.494 144.926 212.958 145.086 212.416C145.474 211.121 145.838 209.95 146.165 208.958C147.077 206.086 147.681 204.188 147.311 203.368C147.188 203.188 147.03 203.034 146.847 202.916C146.664 202.797 146.459 202.716 146.245 202.678C144.698 202.215 142.091 202.413 139.743 203.91C136.39 206.055 133.24 211.356 133.209 211.411C133.187 211.448 133.158 211.479 133.123 211.504L109.456 228.335Z" fill="#263238"/>
<path d="M143.108 213.309C142.899 213.308 142.691 213.277 142.491 213.217C141.111 212.804 141.302 208.761 141.974 206C142.732 202.856 145.209 202.604 145.314 202.598C145.354 202.593 145.395 202.597 145.434 202.609C145.472 202.621 145.508 202.64 145.539 202.666C145.57 202.692 145.596 202.724 145.614 202.76C145.633 202.795 145.644 202.835 145.647 202.875C145.654 202.956 145.629 203.036 145.577 203.098C145.525 203.161 145.45 203.2 145.37 203.208C145.271 203.208 143.219 203.448 142.572 206.142C141.82 209.223 141.992 212.428 142.664 212.625C142.952 212.688 143.25 212.688 143.538 212.626C143.826 212.565 144.097 212.442 144.334 212.268C144.4 212.22 144.482 212.2 144.562 212.212C144.643 212.223 144.716 212.265 144.766 212.329C144.791 212.361 144.81 212.397 144.821 212.435C144.831 212.474 144.834 212.514 144.829 212.554C144.824 212.594 144.811 212.632 144.79 212.667C144.77 212.701 144.743 212.731 144.71 212.755C144.245 213.099 143.686 213.293 143.108 213.309Z" fill="#263238"/>
<path d="M131.188 215.263C131.124 215.264 131.061 215.243 131.009 215.206C130.957 215.168 130.918 215.115 130.898 215.054C130.226 213.155 131.835 211.565 132.784 210.992C132.855 210.949 132.939 210.937 133.019 210.956C133.098 210.976 133.167 211.026 133.209 211.097C133.252 211.167 133.265 211.251 133.245 211.331C133.226 211.411 133.175 211.479 133.105 211.522C133.006 211.577 130.806 212.946 131.478 214.85C131.503 214.928 131.498 215.013 131.462 215.086C131.426 215.16 131.363 215.217 131.287 215.245C131.255 215.257 131.222 215.263 131.188 215.263Z" fill="#263238"/>
</svg>
